<?xml version="1.0" encoding="UTF-8"?>
<svg xmlns="http://www.w3.org/2000/svg" viewBox="0 0 385 386">
  <defs>
    <style>
      .cls-1 {
        fill: #efaaff;
      }

      .cls-2 {
        fill: #7b4887;
      }
    </style>
  </defs>
  <g id="Layer_7" data-name="Layer 7">
    <path class="cls-1" d="m155.67,158.46c-1.71,4.19-3.1,8.53-3.8,13.02-.5,3.17-.97,6.4-.97,9.62s.42,6.17.94,9.19c.79,4.57,2.61,9.2,5.02,13.15,1.46,2.38,3.2,4.66,5.13,6.68,1.3,1.37,2.94,2.38,4.18,3.79l-2.11-2.73c.22.29.39.55.56.87l-1.36-3.22c.09.2.16.41.19.63l-.48-3.59c.04.23.04.45,0,.68l.48-3.59c-.04.23-.1.45-.21.66l1.36-3.22c-.1.21-.23.4-.38.58l2.11-2.73c-.25.27-.5.5-.8.72l2.73-2.11c-.76.52-1.57.91-2.4,1.28l3.22-1.36c-1.99.84-4.06,1.36-6.2,1.68l3.59-.48c-4.26.57-8.56.35-12.84.23-5.31-.15-10.62.07-15.84,1.22-10.17,2.24-19.24,9.5-24.41,18.43-3.2,5.53-4.85,11.61-5.19,17.97-.17,3.35,1.63,7.22,3.95,9.55s6.18,4.1,9.55,3.95,7.11-1.3,9.55-3.95,3.76-5.83,3.95-9.55c.04-.71.1-1.42.2-2.13l-.48,3.59c.31-2.12.89-4.17,1.71-6.15l-1.36,3.22c.9-2.08,2.05-4.02,3.42-5.83l-2.11,2.73c1.4-1.79,3-3.38,4.79-4.78l-2.73,2.11c1.71-1.3,3.55-2.37,5.52-3.22l-3.22,1.36c2.15-.88,4.38-1.42,6.68-1.73l-3.59.48c4.17-.51,8.37-.31,12.55-.2,5.25.15,10.5-.05,15.66-1.19,8.62-1.91,17.79-7.85,17.73-17.72-.03-4.98-2.31-9.82-6.2-12.95-1.55-1.25-2.96-2.58-4.19-4.14l2.11,2.73c-1.33-1.74-2.41-3.62-3.28-5.63l1.36,3.22c-1-2.4-1.67-4.89-2.05-7.46l.48,3.59c-.44-3.24-.37-6.51.05-9.75l-.48,3.59c.67-4.81,2.1-9.45,3.93-13.94.56-1.79.64-3.59.24-5.38-.08-1.8-.62-3.47-1.6-5.02-1.64-2.8-4.85-5.47-8.07-6.2-3.46-.79-7.33-.62-10.4,1.36l-2.73,2.11c-1.67,1.68-2.83,3.67-3.47,5.96h0Z"/>
    <path class="cls-1" d="m178.41,189.71c-8.42.12-16.87.2-25.24-.9l3.59.48c-5.15-.71-10.29-1.84-15.11-3.84l3.22,1.36c-2.78-1.19-5.41-2.65-7.82-4.48l2.73,2.11c-1.61-1.26-3.07-2.67-4.34-4.27l2.11,2.73c-.99-1.3-1.83-2.68-2.5-4.17l1.36,3.22c-.63-1.5-1.05-3.04-1.28-4.66l.48,3.59c-.19-1.65-.17-3.28.02-4.93l-.48,3.59c.32-2.27.95-4.44,1.83-6.56l-1.36,3.22c1.12-2.56,2.56-4.94,4.26-7.15l-2.11,2.73c1.77-2.25,3.78-4.26,6.03-6.03l-2.73,2.11c1.02-.78,2.07-1.51,3.16-2.19-6.16-6.16-12.31-12.31-18.47-18.47-2.79,5.73-5.34,11.57-7.77,17.47-1.02,2.48-2.01,4.98-2.95,7.5-1.63,4.35-3.04,8.64-1.78,13.38,1.88,7.04,8.65,11.93,15.92,11.55,3.41-.18,6.74-1.14,9.99-2.13,5.73-1.75,11.33-4.04,16.73-6.61s10.06-5.36,14.7-8.65c2.93-2.08,5.22-4.5,6.2-8.07.89-3.23.49-7.53-1.36-10.4s-4.63-5.42-8.07-6.2-7.22-.53-10.4,1.36c-11.16,6.62-21.69,14.21-31.7,22.46,7.07,5.45,14.14,10.91,21.2,16.36,6.23-11.29,9.11-24.98,5.77-37.64-.86-3.24-2.19-6.48-3.9-9.36s-4.07-6.01-6.77-8.27c-3.65-3.07-7.23-5.32-11.83-6.76s-9.34-1.25-14.13-.54c-6.94,1.03-13.19,4.74-19.57,7.46l3.22-1.36c-2.83,1.19-5.71,2.17-8.76,2.6l3.59-.48c-2.35.29-4.69.28-7.04,0l3.59.48c-2.61-.35-5.13-1.04-7.56-2.06l3.22,1.36c-2.17-.94-4.2-2.12-6.09-3.55l2.73,2.11c-1.45-1.13-2.77-2.39-3.97-3.78l-16.36,21.2c11.51,6.62,23.03,13.29,33.57,21.41l-2.73-2.11c5.76,4.47,11.17,9.35,16,14.82,2.11,2.39,6.39,4.1,9.55,3.95s5.75-1.02,8.18-2.9c2.23-1.72,4.19-4.19,4.84-7.01l.48-3.59c0-2.44-.62-4.71-1.84-6.81-4.86-10.59-13.32-18.79-22.49-25.7-8.38-6.32-17.89-10.85-27.34-15.3-5.73-2.7-11.47-5.4-17.02-8.47-2.27,8.39-4.54,16.77-6.81,25.16,22.87-1.9,45.77-3.34,68.7-4.3,22.84-.96,45.69-1.45,68.55-1.48,12.92-.02,25.85.12,38.77.4v-27c-33.85.53-67.82,5.32-100.47,14.28-1.81.5-3.61.99-5.41,1.53-4.73,1.41-8.92,3.8-11.59,8.1-4.69,7.55-2.29,16.78,3.44,22.98,1.67,1.81,3.8,3.38,5.91,4.64,2.39,1.43,5.07,2.49,7.72,3.33,3.36,1.07,6.88,1.55,10.36,2.03,17.14,2.37,34.31,3.19,51.57,1.69,10.1-.88,20.19-2.33,30.11-4.47,4.19-.9,8.4-1.86,12.48-3.19,4.77-1.56,9.63-3.52,13.7-6.5,2.03-1.2,3.64-2.81,4.84-4.84,1.22-2.11,1.84-4.38,1.84-6.81,0-4.44-2.5-9.67-6.69-11.66-3.33-1.58-6.75-3-10.38-3.7s-7.41-1.16-11.14-1.19c-6.55-.05-13.11,1.02-19.56,2.06-11.41,1.85-22.69,4.49-33.74,7.9-6.28,1.94-12.48,4.12-18.59,6.54-1.76.42-3.29,1.22-4.59,2.42-1.47.95-2.63,2.21-3.48,3.79-1.44,2.73-2.01,5.54-1.6,8.61.38,2.83,1.54,5.76,3.71,7.75,2.61,2.4,5.92,4.03,9.55,3.95,27.28-.56,54.57-3.65,81.31-9.08,7.24-1.47,14.43-3.13,21.59-4.96,5.52-1.41,10.17-7.21,9.91-13.02-.11-2.4-.72-4.69-1.84-6.81-1.41-2.67-5.04-5.66-8.07-6.2-5.05-.91-10.17-1.47-15.3-1.29s-10.39.92-15.5,1.86c-8.21,1.51-16.22,3.9-24.32,5.89-4.66,1.15-9.36,2.16-14.11,2.82l3.59-.48c-1.55.21-3.1.38-4.66.5,3.18,7.68,6.36,15.36,9.55,23.05,1.84-1.62,3.72-3.18,5.65-4.69l-2.73,2.11c7.76-5.99,16.25-10.97,25.26-14.81l-3.22,1.36c11.06-4.66,22.75-7.41,34.62-9.03l-3.59.48c10-1.34,20.08-1.94,30.15-2.38,5.12-.22,10.25-.41,15.38-.61,2.65-.1,5.3-.21,7.95-.31,2.51-.1,5.14-.44,7.64-.14l-3.59-.48c.39.07.73.16,1.1.28l-3.22-1.36c.37.16.65.33.98.57l-2.73-2.11c.18.15.34.31.49.49l-2.11-2.73c.2.27.34.51.47.81l-1.36-3.22c.07.19.13.39.16.59l-.48-3.59c.05.43.04.83-.01,1.26l.48-3.59c-.09.46-.22.88-.39,1.32l1.36-3.22c-.37.82-.83,1.55-1.37,2.27l2.11-2.73c-.73.91-1.54,1.71-2.46,2.42l2.73-2.11c-11.86,8.85-25.04,15.67-38.1,22.53-6.5,3.41-12.99,6.85-19.32,10.57-7.12,4.19-13.86,8.84-20.35,13.94-7.3,5.74-13.44,12.34-19.06,19.72-.99,1.55-1.52,3.22-1.6,5.02-.4,1.79-.32,3.59.24,5.38.92,2.85,2.46,5.18,4.84,7.01,5.34,4.13,12.83,3.64,17.73-1.06,9.12-8.75,18.24-17.5,27.37-26.25,8.35-8.01,16.7-16.02,24.42-24.65,5.02-5.61,9.74-11.5,14.13-17.61l1.36-3.22.48-3.59c0-3.01-1.08-5.83-2.9-8.18-3.22-4.17-8.98-6.4-14.19-4.84-8.41,2.53-16.62,5.81-24.53,9.63-3.47,1.68-6.87,3.49-10.2,5.44s-6.45,4.3-9.96,5.87l3.22-1.36c-1.12.47-2.24.82-3.43.99l3.59-.48c-.75.07-1.46.07-2.21,0l3.59.48c-.71-.12-1.36-.3-2.03-.56l3.22,1.36c-1.03-.45-1.95-1.04-2.84-1.72l2.73,2.11c-2.41-1.92-4.54-4.21-6.75-6.36-2.42-2.35-4.84-4.71-7.26-7.06v19.09c.44-.36.88-.72,1.34-1.07l-2.73,2.11c3.29-2.51,6.88-4.57,10.69-6.18l-3.22,1.36c3.96-1.63,8.09-2.76,12.34-3.35l-3.59.48c4.25-.56,8.53-.58,12.78-.03l-3.59-.48c.71.1,1.41.21,2.11.33l-9.43-16.61c-.14.53-.31,1.05-.52,1.56l1.36-3.22c-.45,1.01-1,1.93-1.66,2.82l2.11-2.73c-2.05,2.65-4.7,4.8-7.26,6.94s-5.22,4.27-7.88,6.34l2.73-2.11c-11.63,8.97-23.77,17.24-35.3,26.34-11.42,9.01-21.75,19.08-30.05,31.09-2.97,4.29-5.23,8.77-7.17,13.62s-2.94,10.46-2.42,15.67c0,2.44.62,4.71,1.84,6.81,1.2,2.03,2.81,3.64,4.84,4.84,3.9,2.28,9.77,2.71,13.63,0,7.11-5,13.92-10.51,20.09-16.64,6.23-6.19,11.81-13.02,16.89-20.17,3.94-5.56,8.25-11.74,6.15-19-.81-2.78-2.1-5.07-4.06-7.2-.6-.65-1.32-1.13-2.02-1.67-.77-.59-1.47-1.21-2.33-1.64-2.53-1.29-5.32-2.31-8.11-2.94-4.75-1.07-9.81-1.59-14.67-1.02-2.97.35-5.95.72-8.82,1.57s-5.58,2.01-8.2,3.3c-3.96,1.95-7.65,4.77-10.79,7.86s-5.99,6.8-8.07,10.72c-2.63,4.95-4.51,10.24-4.97,15.84-.2,2.4.39,4.75,1.3,6.93,1.34,3.18,3.48,5.87,6.5,7.66,3.41,2.02,6.84,2.41,10.71,2.8,7.01.72,14.07.55,21.05-.37,8.09-1.07,15.96-2.67,23.63-5.52,15.2-5.65,29.25-14.25,40.5-26.01,1.23-1.28,2.41-2.61,3.56-3.96,1.5-1.76,2.85-3.69,3.47-5.96.81-2.94.49-6.02-.68-8.79-2.13-5.04-6.88-8.1-12.34-8.3-8.02-.3-14.57,4.16-20.83,8.51-4.79,3.32-9.5,6.74-14.11,10.3s-9.21,7.29-13.44,11.36c-4.49,4.32-8.48,9.06-12.18,14.08-4.13,5.6-7.15,11.7-9.68,18.17-.64,2.39-.64,4.79,0,7.18.64,2.29,1.8,4.27,3.47,5.96,1.68,1.67,3.67,2.83,5.96,3.47,2.39.64,4.79.64,7.18,0,11.12-4.61,22.42-9.13,32.66-15.53,5.43-3.39,10.64-7.31,15.3-11.7,4.09-3.86,7.76-8.13,11.51-12.32,4.17-4.66,8.48-9.16,13.44-12.99l-2.73,2.11c6.62-5.07,13.93-9.09,21.16-13.19,8.12-4.62,15.98-9.55,23.08-15.67l-19.09-19.09c-20.4,20.37-40.79,40.75-61.19,61.12-5.76,5.75-11.51,11.5-17.27,17.25-2.45,2.45-3.95,6.09-3.95,9.55s1.47,7.27,3.95,9.55,5.95,4.12,9.55,3.95,6.96-1.37,9.55-3.95c20.4-20.37,40.79-40.75,61.19-61.12,5.76-5.75,11.51-11.5,17.27-17.25,2.45-2.45,3.95-6.09,3.95-9.55s-1.47-7.27-3.95-9.55-5.95-4.12-9.55-3.95-6.71,1.51-9.55,3.95c-1.01.87-2.04,1.72-3.09,2.54l2.73-2.11c-8.97,6.92-19.22,11.85-28.85,17.73-5.66,3.45-11.12,7.33-16.09,11.72-4.45,3.93-8.36,8.42-12.3,12.85-4.45,5-9,9.86-14.29,13.98l2.73-2.11c-9.39,7.22-20.19,12.22-31.05,16.81l3.22-1.36c-1.84.78-3.68,1.54-5.53,2.31,5.54,5.54,11.07,11.07,16.61,16.61.2-.51.41-1.02.62-1.53l-1.36,3.22c2.23-5.28,5.2-10.18,8.68-14.72l-2.11,2.73c6.03-7.77,13.4-14.35,21.16-20.35l-2.73,2.11c3.44-2.65,6.96-5.2,10.52-7.69s7.17-5.41,11.19-7.21l-3.22,1.36c1.08-.45,2.17-.78,3.33-.95l-3.59.48c.58-.06,1.15-.08,1.73-.06-3.18-7.68-6.36-15.36-9.55-23.05-3.98,4.69-8.44,8.94-13.3,12.73l2.73-2.11c-6.39,4.94-13.39,9.02-20.81,12.18l3.22-1.36c-7.69,3.24-15.77,5.48-24.04,6.63l3.59-.48c-7.42.99-14.99,1.15-22.42.22l3.59.48c-.6-.09-1.18-.21-1.76-.41l3.22,1.36c-.33-.14-.61-.29-.91-.49l2.73,2.11c-.18-.14-.34-.29-.48-.47l2.11,2.73c-.15-.19-.27-.41-.35-.64l1.36,3.22c-.09-.24-.14-.49-.17-.75l.48,3.59c-.02-.41,0-.78.05-1.18l-.48,3.59c.35-2.1,1.02-4.15,1.82-6.11l-1.36,3.22c1.1-2.59,2.5-5.01,4.2-7.25l-2.11,2.73c1.72-2.22,3.69-4.21,5.9-5.94l-2.73,2.11c2.11-1.61,4.38-2.94,6.82-3.99l-3.22,1.36c2.62-1.09,5.34-1.82,8.15-2.23l-3.59.48c2.96-.39,5.93-.39,8.89,0l-3.59-.48c2.33.34,4.62.9,6.82,1.74l-3.22-1.36c.59.25,1.13.53,1.66.9l-2.73-2.11c.29.24.53.46.77.75l-2.11-2.73c.14.18.26.38.34.6l-1.36-3.22c.09.22.14.45.16.68l-.48-3.59v.4c.16-1.2.32-2.39.48-3.59-.07.43-.17.76-.34,1.16l1.36-3.22c-2.05,4.03-5.07,7.8-7.83,11.36l2.11-2.73c-6.89,8.87-14.87,16.84-23.74,23.74l2.73-2.11c-1.66,1.28-3.34,2.52-5.06,3.73,6.77,3.89,13.54,7.77,20.31,11.66-.18-1.83-.14-3.64.11-5.46l-.48,3.59c.4-2.59,1.17-5.07,2.18-7.48l-1.36,3.22c2.14-4.9,5.16-9.36,8.41-13.58l-2.11,2.73c7.76-10.02,17.32-18.4,27.31-26.13l-2.73,2.11c14.01-10.81,28.85-20.55,42.31-32.09,5.09-4.36,9.69-9.4,11.46-16.06.87-3.25.5-7.51-1.36-10.4s-4.66-5.6-8.07-6.2c-9.36-1.66-18.68-1.57-27.93.87s-17.21,6.95-24.46,12.91c-2.41,1.99-4.09,6.5-3.95,9.55.16,3.55,1.35,7.01,3.95,9.55,3.23,3.14,6.46,6.28,9.68,9.42,4.14,4.02,8.53,8.13,14.3,9.58,7.1,1.78,14.07-.22,20.18-3.92,3.61-2.19,7.15-4.47,10.88-6.49,4.17-2.26,8.44-4.3,12.81-6.14l-3.22,1.36c4.74-1.98,9.58-3.72,14.5-5.2-5.08-6.61-10.16-13.22-15.25-19.83-1.04,1.44-2.1,2.87-3.18,4.28l2.11-2.73c-13.54,17.51-30.26,32.37-46.18,47.64-4.81,4.62-9.63,9.24-14.44,13.85l21.2,16.36c.16-.21.32-.42.48-.63l-2.11,2.73c4.97-6.4,10.84-12,17.23-16.95l-2.73,2.11c11.13-8.58,23.59-15.19,35.99-21.71s25.2-13.11,36.68-21.44c2.17-1.58,4.5-3.08,6.29-5.11,2.56-2.89,4.56-5.9,5.62-9.66,1.25-4.43.65-9.51-1.78-13.42-1.47-2.37-3.61-4.5-6.06-5.87-2.76-1.55-5.53-2.07-8.65-2.32-2.05-.16-4.15.07-6.2.15-2.38.09-4.77.19-7.15.28-4.59.18-9.18.35-13.76.54-18.45.74-37.17,1.83-55.13,6.42-9.04,2.31-17.83,5.69-26.18,9.85-8.19,4.08-15.67,9.21-22.83,14.9-1.56,1.24-3.08,2.52-4.57,3.83l-2.11,2.73-1.36,3.22c-.81,2.94-.49,6.02.68,8.79.94,2.22,2.25,3.93,4.16,5.4,2.21,1.71,5.29,3.13,8.18,2.9,9.32-.75,18.4-2.74,27.42-5.08,7.96-2.07,15.9-4.26,24.06-5.37l-3.59.48c5.49-.72,11.02-.9,16.51-.17l-3.59-.48c.77.11,1.54.23,2.3.37v-26.04c-16.47,4.22-33.18,7.47-50.03,9.75l3.59-.48c-16.34,2.19-32.8,3.46-49.28,3.8,1.2,8.84,2.39,17.68,3.59,26.52,18.48-7.32,37.87-12.55,57.58-15.23l-3.59.48c5.38-.71,10.82-1.11,16.23-.42l-3.59-.48c2.73.39,5.37,1.05,7.92,2.1l-3.22-1.36c.42.18.84.37,1.26.57v-23.31c-2.07,1.51-4.31,2.72-6.66,3.72l3.22-1.36c-4.99,2.07-10.3,3.29-15.56,4.44-5.69,1.25-11.43,2.25-17.2,3.03l3.59-.48c-18.92,2.52-38.12,2.55-57.04.04l3.59.48c-4.49-.6-9.07-1.17-13.3-2.87l3.22,1.36c-1.51-.64-2.92-1.42-4.22-2.42l2.73,2.11c-.74-.6-1.42-1.24-2.02-1.98l2.11,2.73c-.4-.55-.74-1.11-1.02-1.72l1.36,3.22c-.2-.49-.34-.97-.44-1.49l.48,3.59c-.04-.38-.05-.73-.03-1.11l-.48,3.59c.06-.38.15-.69.29-1.05l-1.36,3.22c.1-.23.23-.44.39-.64l-2.11,2.73c.16-.21.35-.4.56-.57l-2.73,2.11c.44-.33.89-.58,1.4-.8l-3.22,1.36c4.44-1.71,9.29-2.71,13.89-3.88,4.87-1.24,9.76-2.39,14.68-3.44,9.75-2.08,19.57-3.78,29.45-5.12l-3.59.48c15.2-2.03,30.51-3.18,45.84-3.41,3.5-.05,7.06-1.47,9.55-3.95,2.34-2.34,4.1-6.18,3.95-9.55-.33-7.45-5.93-13.33-13.5-13.5-22.94-.5-45.89-.54-68.83-.1s-45.7,1.34-68.52,2.71c-12.9.77-25.79,1.7-38.67,2.77-3.07.26-5.69.98-8.18,2.9-2.23,1.72-4.19,4.19-4.84,7.01-1.31,5.75.82,12.27,6.2,15.25,14.92,8.25,31.39,13.82,45.03,24.27l-2.73-2.11c4.2,3.26,8.07,6.92,11.36,11.11l-2.11-2.73c2.21,2.87,4.1,5.94,5.61,9.23,7.07-5.45,14.14-10.91,21.2-16.36-11.34-12.83-25.82-22.67-40.42-31.41-3.93-2.35-7.91-4.64-11.88-6.93-5.86-3.37-13.33-1.81-17.42,3.48-1.76,2.28-3.03,5.22-2.9,8.18.17,3.73,1.51,6.71,3.95,9.55,7.18,8.33,17.95,12.72,28.73,13.5,4.86.35,10-.4,14.6-1.98,5.09-1.75,9.87-4.26,14.81-6.35l-3.22,1.36c2.58-1.07,5.21-1.97,7.98-2.36l-3.59.48c1.5-.18,2.98-.19,4.48,0l-3.59-.48c1.4.21,2.74.59,4.05,1.14l-3.22-1.36c1.29.59,2.49,1.31,3.63,2.16l-2.73-2.11c1.43,1.12,2.69,2.4,3.81,3.84l-2.11-2.73c1.16,1.54,2.11,3.19,2.88,4.95l-1.36-3.22c.89,2.13,1.47,4.33,1.81,6.61l-.48-3.59c.4,2.99.37,5.99,0,8.98l.48-3.59c-.51,3.72-1.52,7.33-2.96,10.79l1.36-3.22c-.62,1.46-1.32,2.89-2.09,4.28-3.27,5.93-1.89,13.27,3.48,17.42,2.28,1.76,5.22,3.03,8.18,2.9l3.59-.48c2.29-.64,4.27-1.8,5.96-3.47,1.9-1.56,3.82-3.1,5.77-4.61l-2.73,2.11c7.41-5.71,15.16-10.97,23.2-15.74-4.54-7.77-9.08-15.54-13.63-23.31-5.86,4.16-12.14,7.66-18.76,10.47l3.22-1.36c-2.59,1.09-5.22,2.07-7.89,2.94-2.53.82-5.15,1.72-7.78,2.12l3.59-.48c-.47.05-.91.06-1.38,0l3.59.48c-.21-.04-.42-.1-.62-.19l3.22,1.36-.28-.15,2.73,2.11c-.18-.12-.34-.27-.47-.45l2.11,2.73-.19-.32,1.36,3.22c-.1-.22-.16-.45-.18-.7l.48,3.59c-.02-.25-.01-.5.02-.75l-.48,3.59c.44-2.44,1.62-4.86,2.5-7.16.96-2.51,1.97-5,3.01-7.48l-1.36,3.22c1.77-4.18,3.65-8.3,5.63-12.38,1.36-2.8,2.02-5.47,1.6-8.61-.38-2.83-1.54-5.76-3.71-7.75-4.35-3.99-11.13-5.36-16.36-2.11-7.22,4.48-13.69,10.91-17.53,18.56-4.3,8.56-6.45,19.03-2.7,28.21,1.91,4.69,4.32,8.79,7.99,12.38,2.74,2.68,5.95,5.05,9.32,6.9,7.98,4.37,16.55,6.23,25.48,7.39,8.37,1.09,16.81,1.02,25.24.9,3.49-.05,7.06-1.47,9.55-3.95,2.34-2.34,4.1-6.18,3.95-9.55s-1.3-7.11-3.95-9.55-5.91-4-9.55-3.95h0Z"/>
    <path class="cls-1" d="m258.65,242.19c2.5,1.53,4.92,3.21,7.24,4.99l-2.73-2.11c11.66,9.03,20.87,20.66,30.42,31.79,4.78,5.57,9.67,11.06,15.03,16.08,3.42,3.2,7.05,6.11,10.78,8.95,1.58,1.2,3.19,2.37,4.96,3.3,3.85,2.01,7.37,3.04,11.67,3.41,1.37.12,2.64-.08,4.01-.27,1.46-.2,2.83-.34,4.21-.84,3.9-1.41,6.67-3.1,9.82-5.79,2.08-1.77,3.8-4.09,5.25-6.37.46-.73.86-1.49,1.21-2.28.85-1.92,1.73-3.87,2.31-5.9,1.43-5.06,1.69-10.5,1.64-15.74-.04-4.68-.12-9.35-.18-14.03-.25-18.96-.46-37.91-.75-56.87-.14-9.07-.4-18.16-1.38-27.19-.6-5.53-1.35-11.07-2.47-16.52-.42-2.06-.86-4.13-1.46-6.15-.39-1.29-.92-2.51-1.45-3.75s-1.03-2.55-1.82-3.71c-.96-1.41-2.03-2.91-3.3-4.09s-2.86-2.52-4.54-3.23l-3.22-1.36c-1.79-.56-3.59-.64-5.38-.24-2.89.39-5.67,1.56-7.75,3.71-7.04,7.27-10.89,16.91-12.61,26.75s-2.54,20.49-2.47,30.8c.14,18.93,2.79,37.72,4.26,56.56.82,10.61,1.27,21.25.7,31.88,8.39-2.27,16.77-4.54,25.16-6.81-.62-1.4-1.23-2.8-1.83-4.2l1.36,3.22c-7.35-17.48-12.34-35.9-14.89-54.69l.48,3.59c-1.61-12.12-2.21-24.36-1.75-36.59.12-3.23-1.56-7.35-3.95-9.55-2.23-2.05-4.74-3.31-7.75-3.71s-6.09-.02-8.61,1.6l-2.73,2.11c-1.67,1.68-2.83,3.67-3.47,5.96-5.94,15.32-11.31,30.85-16.09,46.57-1.36,4.47-2.67,8.95-3.94,13.45h26.04c-2.49-6.51-5.31-12.92-8.65-19.04-2.24-4.1-4.94-7.52-8.84-10.17-1.28-.87-2.81-1.43-4.25-1.96-1.51-.56-3.16-.79-4.77-.8s-3.25.21-4.72.66c-2.67.82-4.64,2.19-6.73,4,7.07,5.45,14.14,10.91,21.2,16.36,9.87-16,19.16-32.35,27.86-49.01-8.22-1.07-16.45-2.15-24.67-3.22.21,1.23.4,2.46.57,3.7l-.48-3.59c3.13,23.53-1.52,47.09-1.6,70.64-.03,7.78.63,15.45,1.75,23.15.45,3.11,3.63,6.56,6.2,8.07,2.89,1.69,7.16,2.41,10.4,1.36s6.42-3.08,8.07-6.2l1.36-3.22c.64-2.39.64-4.79,0-7.18-.07-.46-.13-.93-.2-1.39l.48,3.59c-3.17-24.17,1.82-48.34,1.62-72.54-.06-7.9-.81-15.76-2.14-23.55l-1.36-3.22-2.11-2.73c-2.11-2.11-4.83-3.32-7.75-3.71-2.47-.33-4.7-.05-7,.92-2.58,1.09-5.12,2.97-6.46,5.52-8.7,16.66-17.99,33.01-27.86,49.01-1.74,2.81-2.39,7.23-1.36,10.4.92,2.85,2.46,5.18,4.84,7.01s5.22,3.03,8.18,2.9l3.59-.48c2.29-.64,4.27-1.8,5.96-3.47l.25-.22-2.73,2.11c.16-.12.34-.23.53-.31l-3.22,1.36c.18-.08.36-.13.55-.16l-3.59.48c.31-.03.56-.02.87.02l-3.59-.48c.31.07.59.16.89.28l-3.22-1.36c.41.2.79.43,1.17.7l-2.73-2.11c.68.54,1.27,1.14,1.81,1.81l-2.11-2.73c1.61,2.15,2.78,4.72,3.99,7.11,1.29,2.56,2.49,5.16,3.61,7.8l-1.36-3.22c.6,1.43,1.18,2.87,1.73,4.31l1.36,3.22c.85,1.57,2.01,2.84,3.48,3.79,2.28,1.76,5.22,3.03,8.18,2.9,2.4-.11,4.69-.72,6.81-1.84,2.94-1.55,5.32-4.93,6.2-8.07,4.45-15.81,9.49-31.46,15.1-46.9,1.6-4.39,3.24-8.76,4.93-13.12-8.84-1.2-17.68-2.39-26.52-3.59-.53,13.93.47,27.74,2.42,41.54,1.8,12.79,4.75,25.41,8.81,37.67,2.6,7.85,5.7,15.53,9.07,23.09l2.11,2.73c1.22,1.32,2.67,2.25,4.34,2.79,2.68,1.13,5.94,1.6,8.79.68,2.23-.72,4.23-1.89,5.96-3.47,2.61-2.4,3.77-6.13,3.95-9.55,1.54-29.06-4.5-57.79-4.94-86.79-.12-8.13.22-16.26,1.27-24.33l-.48,3.59c.75-5.59,1.81-11.17,4-16.4l-1.36,3.22c1-2.32,2.22-4.51,3.74-6.53l-2.11,2.73c.65-.84,1.34-1.64,2.09-2.41l-16.36,2.11c.52.22.98.48,1.43.81l-2.73-2.11c.52.42.96.87,1.37,1.4l-2.11-2.73c.54.74.97,1.53,1.34,2.36l-1.36-3.22c1.04,2.49,1.58,5.18,2.13,7.82.65,3.11,1.17,6.24,1.6,9.38l-.48-3.59c1.88,14.15,1.84,28.46,2.03,42.7s.38,29.25.58,43.87c.05,4.15.11,8.31.16,12.46.05,3.78.14,7.56-.34,11.32l.48-3.59c-.31,2.2-.82,4.34-1.66,6.4l1.36-3.22c-.59,1.37-1.34,2.63-2.25,3.82l2.11-2.73c-.78.97-1.63,1.84-2.6,2.62l2.73-2.11c-.96.74-1.98,1.36-3.1,1.84l3.22-1.36c-.89.35-1.8.59-2.75.73l3.59-.48c-.89.09-1.74.08-2.62-.02l3.59.48c-1.09-.17-2.12-.48-3.14-.89l3.22,1.36c-2.51-1.1-4.71-2.72-6.87-4.39l2.73,2.11c-17.59-13.66-29.46-32.95-45.64-48.05-5.29-4.94-11.05-9.51-17.23-13.29-2.95-1.81-7.09-2.27-10.4-1.36-3.13.86-6.53,3.28-8.07,6.2-1.66,3.13-2.49,6.93-1.36,10.4s3.12,6.18,6.2,8.07h0Z"/>
    <path class="cls-1" d="m219.39,255.67c6.25,8.12,12.5,16.23,18.75,24.35,3.18,4.13,6.28,8.4,9.94,12.12s7.67,6.95,12.31,8.96c2.21.96,4.35,1.84,6.81,1.84,3.01,0,5.83-1.08,8.18-2.9,4.39-3.39,6.06-8.81,4.84-14.19-4.4-19.35-14.36-37.39-28-51.75-2.25-2.36-6.27-4.1-9.55-3.95-3.05.14-5.75,1.02-8.18,2.9-2.23,1.72-4.19,4.19-4.84,7.01l-.48,3.59c0,2.44.62,4.71,1.84,6.81,3.64,8.15,9.44,15.33,15.55,21.76,5.56,5.86,11.64,11.19,17.34,16.91,3.17,3.18,6.22,6.48,8.98,10.04l-2.11-2.73c2.71,3.54,5.1,7.3,6.95,11.36,2.69-6.61,5.38-13.22,8.07-19.83-.31.06-.62.1-.94.14l3.59-.48c-2.21.25-4.39.14-6.59-.13l3.59.48c-3.25-.44-6.44-1.19-9.68-1.67-4.32-.64-8.64-1.16-13.01-1.31-6.49-.22-12.99.18-19.46.64-13.39.95-26.79,1.88-40.19,2.68-26.67,1.59-53.38,2.71-80.1,2.86-15.1.08-30.19-.15-45.28-.78,2.27,8.39,4.54,16.77,6.81,25.16,20.26-13.46,39.91-27.78,59.07-42.77,5.1-3.99,10.07-8.15,15.19-12.11l-2.73,2.11c1.89-1.44,3.86-2.77,6.06-3.7l-3.22,1.36c1.16-.45,2.33-.78,3.56-.94l-3.59.48c1.14-.11,2.26-.09,3.4.06l-3.59-.48c2.59.41,5.01,1.37,7.42,2.38l-3.22-1.36c4.82,2.04,9.51,4.04,14.65,5.11s10.56,1.69,15.88,1.93c4.26.19,8.53.15,12.79.07s8.56-.49,12.74-.08l-3.59-.48c.51.08.98.2,1.46.39l-3.22-1.36c.23.11.44.24.63.4l-2.73-2.11c.18.15.34.31.48.49l-2.11-2.73c.2.29.36.57.51.89l-1.36-3.22c.55,1.41.76,2.95,1.07,4.42.38,1.83.75,3.66,1.13,5.48.72,3.48,1.58,6.97,2.14,10.48l-.48-3.59c.04.37.05.69.02,1.05l.48-3.59c-.03.23-.09.44-.19.64l1.36-3.22-.18.29,2.11-2.73-.23.24,2.73-2.11c-.17.14-.36.25-.56.33l3.22-1.36c-.21.08-.43.13-.66.16l3.59-.48c-1.39.13-2.83-.12-4.21-.3l3.59.48c-7.33-1-14.4-3.23-21.57-4.99-8.15-2-16.56-3.16-24.93-3.58-6.86-.35-13.81-.24-20.64.52-3.88.43-7.78.94-11.58,1.83s-7.27,2.27-10.83,3.81c-7.29,3.15-13.7,8.76-17.67,15.65-2.17,3.77-2.35,8.06-.68,12.01s4.67,6.45,8.75,7.82c8.05,2.69,16.74,2.35,25.09,2.1,7.89-.24,15.77-.47,23.66-.71,15.61-.47,31.21-.94,46.82-1.41,8.8-.26,17.6-.53,26.4-.79,3.53-.11,7.02-1.43,9.55-3.95,2.34-2.34,4.1-6.18,3.95-9.55s-1.3-7.11-3.95-9.55c-2.6-2.38-5.93-4.06-9.55-3.95-29.55.89-59.11,1.78-88.66,2.67-7.9.24-16.05,1.03-23.91-.01l3.59.48c-1.98-.29-3.92-.72-5.81-1.36,2.69,6.61,5.38,13.22,8.07,19.83.52-.9,1.09-1.76,1.72-2.59l-2.11,2.73c1.26-1.61,2.7-3.03,4.3-4.28l-2.73,2.11c2.19-1.67,4.6-3,7.14-4.07l-3.22,1.36c4.31-1.78,8.88-2.81,13.49-3.45l-3.59.48c10.55-1.4,21.48-1.25,32.02.13l-3.59-.48c7.26.98,14.26,2.9,21.34,4.73,3.49.9,7.01,1.74,10.57,2.29,2.68.42,5.42.89,8.14,1.01,5.62.24,11.25-2.61,14.16-7.45,2.5-4.15,2.46-8.51,1.59-13.09-.36-1.91-.79-3.82-1.18-5.72-.75-3.66-1.51-7.31-2.26-10.97-.5-2.41-1.2-4.63-2.45-6.82s-3.57-4.59-5.82-5.84c-1.52-.84-3.28-1.62-5.01-1.94-4.42-.8-8.89-.55-13.35-.46-7.88.16-15.8.35-23.63-.7l3.59.48c-5.06-.71-9.92-2.01-14.63-4l3.22,1.36c-5.72-2.42-11.19-4.97-17.57-4.89s-12,2.35-16.87,5.93c-4.25,3.12-8.28,6.54-12.4,9.83-3.55,2.83-7.12,5.63-10.71,8.4l2.73-2.11c-13.17,10.17-26.61,19.98-40.33,29.4-3.87,2.66-7.76,5.29-11.67,7.89-2.49,1.66-4.35,3.67-5.52,6.46s-1.6,5.94-.68,8.79c.72,2.23,1.89,4.23,3.47,5.96,2.37,2.58,6.15,3.81,9.55,3.95,25.2,1.05,50.43.99,75.63.23s50.42-2.23,75.59-3.96c13.92-.96,28.11-2.78,42.03-1l-3.59-.48c3.26.44,6.46,1.17,9.7,1.67,2.59.4,5.21.82,7.84.91s5.4-.33,8.05-.76c2.29-.64,4.27-1.8,5.96-3.47,1.32-1.22,2.25-2.67,2.79-4.34.85-1.61,1.23-3.34,1.16-5.2,0-2.44-.62-4.71-1.84-6.81-3.68-8.07-9.46-15.19-15.54-21.58-5.53-5.81-11.56-11.1-17.22-16.78-3.17-3.18-6.22-6.48-8.97-10.03l2.11,2.73c-2.78-3.63-5.21-7.5-7.08-11.68-7.07,5.45-14.14,10.91-21.2,16.36,2.3,2.42,4.48,4.95,6.52,7.59l-2.11-2.73c5.18,6.74,9.47,14.1,12.79,21.93l-1.36-3.22c2.2,5.27,3.95,10.7,5.22,16.27l19.83-15.25c-2.06-.89-3.96-2.05-5.74-3.41l2.73,2.11c-4.11-3.22-7.39-7.3-10.57-11.41l2.11,2.73c-6.62-8.58-13.23-17.18-19.85-25.77-.85-1.57-2.01-2.84-3.48-3.79-1.3-1.19-2.83-2-4.59-2.42-3.23-.89-7.53-.49-10.4,1.36s-5.42,4.63-6.2,8.07-.8,7.6,1.36,10.4h0Z"/>
    <path class="cls-1" d="m64.07,288.1c-5.26-17.26-9.45-34.85-12.49-52.64-.86-5.04-1.63-10.09-2.32-15.15l.48,3.59c-1.16-8.63-2.06-17.29-2.69-25.97-.59-8.12-1.07-16.32-.02-24.42l-.48,3.59c.58-4.21,1.58-8.32,3.22-12.24l-1.36,3.22c.23-.54.47-1.07.73-1.61h-23.31c.75,1.63,1.47,3.27,2.17,4.92l-1.36-3.22c7.83,18.66,12.25,38.49,15.43,58.42.91,5.72,1.72,11.45,2.5,17.18l-.48-3.59c1.6,11.94,3.05,23.91,4.7,35.85.37,2.68.75,5.35,1.16,8.03.19,1.26.38,2.52.58,3.78.1.67.21,1.33.32,2,.44,2.72,1.73,5.32,3.69,7.29,4.49,4.49,12.1,5.43,17.56,2.17,1.23-.73,2.55-1.68,3.56-2.69,1.09-1.09,2.24-2.54,2.97-3.93,1.68-3.22,2.92-6.89,3.71-10.44,1.45-6.46,1.89-13.14,2.12-19.74.2-5.88.24-11.77.14-17.66-.21-11.61-1.02-23.21-2.42-34.74-1.72-14.18-4.1-28.25-7.43-42.14-.78-3.23-3.37-6.41-6.2-8.07s-7.16-2.41-10.4-1.36-6.42,3.08-8.07,6.2c-1.74,3.3-2.2,6.73-1.36,10.4,3.63,15.96,10.33,31.02,16.86,45.96,1.74,3.98,3.49,7.97,5.18,11.97l-1.36-3.22c4.93,11.68,9.39,23.62,11.8,36.1.59,3.04,3.5,6.64,6.2,8.07s5.54,2.01,8.61,1.6c2.83-.38,5.76-1.54,7.75-3.71,2.38-2.59,4.08-5.94,3.95-9.55-.65-18.44-1.8-36.87-3.45-55.25-.47-5.25-.99-10.5-1.54-15.74-8.39,2.27-16.77,4.54-25.16,6.81l25.21,43.06c2.38,4.07,4.77,8.14,7.15,12.21,1.11,1.9,2.94,3.73,4.84,4.84,2.63,1.54,5.63,2,8.61,1.6,2.43-.33,4.45-1.16,6.39-2.66,2.16-1.67,4.32-4.23,4.84-7.01.59-3.17,1.52-6.26,2.76-9.24l-1.36,3.22c.98-2.29,2.14-4.49,3.47-6.6,1.83-2.9,2.26-7.14,1.36-10.4s-3.28-6.53-6.2-8.07c-3.13-1.66-6.93-2.49-10.4-1.36s-6.13,3.14-8.07,6.2c-2.12,3.35-3.69,6.95-5.16,10.63-1.09,2.72-1.88,5.54-2.42,8.42,8.22-1.07,16.45-2.15,24.67-3.22-8.4-14.35-16.81-28.71-25.21-43.06l-7.15-12.21c-1.49-2.54-3.78-4.39-6.46-5.52s-5.94-1.6-8.79-.68c-2.23.72-4.23,1.89-5.96,3.47-1.32,1.22-2.25,2.67-2.79,4.34-.85,1.61-1.23,3.34-1.16,5.2,1.93,18.35,3.37,36.76,4.31,55.19.27,5.27.49,10.53.68,15.8,8.84-1.2,17.68-2.39,26.52-3.59-3.29-17.06-10.37-33.08-17.3-48.91-1.86-4.25-3.73-8.5-5.53-12.78l1.36,3.22c-4.43-10.51-8.48-21.21-11.01-32.35-8.68,2.39-17.36,4.79-26.04,7.18,2.71,11.3,4.84,22.72,6.4,34.23l-.48-3.59c2.38,17.83,3.37,35.84,2.92,53.82-.12,4.87-.28,9.75-.93,14.58l.48-3.59c-.53,3.75-1.38,7.44-2.82,10.95l1.36-3.22c-.26.61-.54,1.14-.94,1.67l2.11-2.73c-.15.19-.32.36-.51.51l2.73-2.11c-.17.14-.36.26-.56.35l3.22-1.36-.29.09,3.59-.48-.3.03,3.59.48-.3-.05,3.22,1.36-.3-.13,6.2,8.07c-1.04-6.37-1.96-12.76-2.82-19.16l.48,3.59c-4.04-30.08-6.75-60.68-15.71-89.81-2.71-8.8-6.06-17.39-9.89-25.76-1.2-2.03-2.81-3.64-4.84-4.84-2.11-1.22-4.38-1.84-6.81-1.84-4.43,0-9.68,2.5-11.66,6.69-2.23,4.72-4.03,9.54-4.94,14.69s-1.43,10.29-1.47,15.48c-.07,8.72.74,17.47,1.6,26.14,1.89,18.99,4.87,37.9,9.12,56.51,2.28,9.96,4.92,19.84,7.9,29.62,1.01,3.31,3.19,6.31,6.2,8.07s7.16,2.41,10.4,1.36,6.42-3.08,8.07-6.2,2.43-6.89,1.36-10.4h0Z"/>
    <path class="cls-1" d="m129.6,244.7c3.46,0,7.1-1.51,9.55-3.95s4.1-6.18,3.95-9.55-1.3-7.11-3.95-9.55c-2.64-2.42-5.89-3.95-9.55-3.95-3.46,0-7.1,1.51-9.55,3.95s-4.1,6.18-3.95,9.55,1.3,7.11,3.95,9.55,5.89,3.95,9.55,3.95h0Z"/>
    <path class="cls-1" d="m114.8,225.18c-5.49,7-11.83,13.29-18.87,18.73l2.73-2.11c-2.56,1.96-5.2,3.82-7.92,5.55-3.47,2.2-7.23,4.36-9.87,7.56-1.32,1.22-2.25,2.67-2.79,4.34-.85,1.61-1.23,3.34-1.16,5.2,0,3.31,1.47,7.27,3.95,9.55s5.95,4.12,9.55,3.95c3.38-.15,7.3-1.24,9.55-3.95.71-.86,1.51-1.62,2.39-2.31l-2.73,2.11c2.81-2.15,5.96-3.84,8.86-5.88,3.69-2.59,7.28-5.37,10.71-8.3,5.4-4.61,10.32-9.76,14.7-15.35,1.32-1.22,2.25-2.67,2.79-4.34.85-1.61,1.23-3.34,1.16-5.2,0-3.31-1.47-7.27-3.95-9.55s-5.95-4.12-9.55-3.95c-3.33.15-7.39,1.21-9.55,3.95h0Z"/>
  </g>
  <g id="Layer_6" data-name="Layer 6">
    <path class="cls-2" d="m65.81,130.9c34.16-2.47,68.33-4.94,102.54-6.61s68.4-2.55,102.62-1.82c9.67.21,19.33.54,28.99,1.02,8.91.44,17.9.76,26.75,1.93l-2.79-.38c2.89.4,5.76.91,8.58,1.67,1.48.4,2.94.86,4.38,1.4.36.13.71.27,1.06.42-1.54-.66-1.94-.83-1.2-.49.6.29,1.2.56,1.79.87,1.36.71,2.62,1.54,3.9,2.39,1.76,1.17-1.85-1.6-.38-.29.52.46,1.05.91,1.56,1.39.94.89,1.81,1.84,2.64,2.83,1.5,1.82-1.31-1.88-.23-.29.39.57.79,1.12,1.16,1.7.65,1.02,1.25,2.06,1.81,3.13.32.62.63,1.24.92,1.87,1.16,2.49-.67-1.8-.01-.1.97,2.49,1.81,5.01,2.5,7.59,1.39,5.21,2.26,10.54,2.99,15.87l-.38-2.79c3.89,29.06,5.84,58.39,5.77,87.71-.02,7.66-.25,15.32-1.23,22.92l.38-2.79c-.69,5.09-1.71,10.14-3.29,15.03-.4,1.22-.83,2.44-1.29,3.63-.15.38-.3.76-.45,1.14l.6-1.43c-.19.55-.48,1.08-.73,1.6-1.05,2.22-2.32,4.26-3.67,6.3-.58.88,1.7-2.06.22-.29-.37.45-.75.88-1.15,1.3-.8.85-1.66,1.61-2.54,2.38-.8.71,2.2-1.58.31-.28-.46.32-.94.62-1.42.91-.96.58-1.95,1.1-2.97,1.57-2.09.97,1.47-.54.44-.18-.53.19-1.06.4-1.59.58-1.08.36-2.17.68-3.28.96-2.33.59-4.7,1.01-7.08,1.34l2.79-.38c-8.44,1.12-17.02,1.43-25.52,1.82-9.16.42-18.33.66-27.5.8-18.24.27-36.48.13-54.71.05-36.56-.16-73.12-.31-109.67-.49-10.15-.05-20.3-.13-30.44-.46-9.61-.32-19.3-.69-28.84-1.94l2.79.38c-2.53-.35-5.04-.78-7.52-1.4-1.22-.3-2.43-.65-3.62-1.05-.51-.17-1.01-.35-1.51-.54-.22-.09-.8-.4-.99-.39.23-.01,2.33,1.07,1.05.42-1.1-.56-2.19-1.09-3.24-1.74-.45-.28-.87-.58-1.31-.87-1.36-.9.86.6.86.7,0-.12-.7-.58-.81-.67-.98-.85-1.85-1.77-2.7-2.74-1.22-1.37,1.21,1.77.2.24-.44-.66-.88-1.31-1.28-2-.71-1.2-1.32-2.45-1.91-3.71-.8-1.7.8,2.05.12.3-.29-.75-.58-1.5-.85-2.25-1-2.79-1.87-5.62-2.72-8.46-1.79-5.98-3.35-12.04-4.7-18.13-1.54-6.97-2.78-14.01-3.74-21.08l.38,2.79c-3.02-22.51-3.22-45.47-.2-68l-.38,2.79c.65-4.73,1.49-9.43,2.67-14.06.59-2.31,1.26-4.6,2.02-6.85.37-1.08.76-2.14,1.17-3.2.16-.42,1.03-2.52.26-.68s.12-.22.31-.64c.97-2.1,2.06-4.14,3.28-6.1.58-.94,1.19-1.85,1.83-2.75.16-.22.52-.59.6-.82.05-.14-1.54,1.93-.87,1.12.38-.45.74-.92,1.13-1.36,1.49-1.73,3.11-3.34,4.86-4.8s-1.7,1.21-.31.22c.42-.3.84-.6,1.27-.89,1.12-.76,2.28-1.46,3.48-2.1.69-.37,1.39-.72,2.1-1.05.27-.12.54-.24.8-.36,1.12-.53-2.58.99-.62.28,1.38-.5,2.75-.99,4.17-1.39,2.94-.84,5.95-1.42,8.98-1.84l-2.79.38c6.56-.86,13.17-.95,19.77-.87,5.49.07,10.75-4.88,10.5-10.5s-4.61-10.43-10.5-10.5c-16.61-.2-34.84.86-48.57,11.35-6.45,4.93-11.75,11-15.62,18.18-3.57,6.63-6.14,13.86-7.88,21.17-1.87,7.83-2.87,15.87-3.64,23.88-.84,8.77-1.23,17.58-1.16,26.4.13,18.2,2.16,36.46,5.9,54.27,1.79,8.51,4,16.94,6.64,25.23s6.29,17.58,13.36,23.57c13.62,11.54,32.42,11.91,49.39,12.74,18.22.89,36.48.8,54.71.88,18.64.08,37.28.17,55.92.25,36.84.16,73.74.92,110.57-.3,9.19-.31,18.38-.74,27.55-1.44s17.71-1.94,26.03-5.6c16.92-7.43,24.24-26.7,26.66-43.8,2.57-18.17,1.93-36.72,1.17-55.01s-2.3-36.52-4.59-54.66c-2.08-16.47-4.55-33.06-15.36-46.34s-29.77-16.14-46.47-17.24c-36.96-2.42-74.05-2.57-111.06-1.46-37.07,1.11-74.09,3.48-111.08,6.1-8.95.63-17.9,1.28-26.85,1.93-2.81.2-5.38,1.03-7.42,3.08-1.82,1.82-3.19,4.81-3.08,7.42.24,5.35,4.63,10.92,10.5,10.5h0Z"/>
    <path class="cls-2" d="m33.56,148.63c18.45,18.46,38.23,35.49,59.04,51.23,10.19,7.7,20.65,15.05,31.35,22.02,10.72,6.98,21.64,13.84,33.22,19.32,13.07,6.18,26.73,10.56,41.24,11.39,7.17.41,14.5-.25,21.48-1.92,6.87-1.64,13.47-4.58,19.7-7.87,10.59-5.6,20.72-12.21,30.47-19.15,10.26-7.29,20.16-15.12,29.58-23.47,18.2-16.13,34.46-34.29,48.8-53.92,1.7-2.33,3.37-4.68,5.01-7.05,1.48-2.14,1.73-5.66,1.06-8.09s-2.55-5.08-4.83-6.28c-2.44-1.29-5.39-1.93-8.09-1.06s-4.65,2.47-6.28,4.83c-3.28,4.74-6.68,9.4-10.2,13.96l1.64-2.13c-13.28,17.17-28.24,33.01-44.64,47.23-4.61,4-9.34,7.86-14.16,11.6l2.13-1.64c-7.38,5.7-14.99,11.1-22.83,16.15s-16.55,10.5-25.5,14.36l2.51-1.06c-5.13,2.16-10.42,3.68-15.93,4.44l2.79-.38c-6.26.8-12.56.68-18.8-.15l2.79.38c-8.47-1.19-16.66-3.68-24.54-6.99l2.51,1.06c-10.66-4.52-20.66-10.41-30.46-16.54s-18.99-12.31-28.19-18.9c-5.27-3.77-10.46-7.64-15.59-11.6l2.13,1.64c-18.48-14.29-36.05-29.74-52.56-46.27-3.89-3.89-11.01-4.18-14.85,0s-4.15,10.7,0,14.85h0Z"/>
    <path class="cls-2" d="m139.69,228.02c-6.64,5.39-13.35,10.7-20.12,15.93l2.13-1.64c-18.93,14.62-38.35,28.61-58.23,41.92-5.66,3.79-11.36,7.53-17.09,11.21-2.28,1.47-4.09,3.62-4.83,6.28-.69,2.51-.38,5.86,1.06,8.09s3.6,4.22,6.28,4.83,5.7.48,8.09-1.06c25.85-16.62,50.98-34.35,75.31-53.13,7.48-5.77,14.9-11.62,22.24-17.57,1.96-1.59,3.08-5.01,3.08-7.42,0-2.58-1.14-5.65-3.08-7.42s-4.63-3.2-7.42-3.08l-2.79.38c-1.78.5-3.32,1.4-4.63,2.7h0Z"/>
    <path class="cls-2" d="m244.37,240.93c17.25,21.96,35.11,43.43,53.58,64.37,5.2,5.9,10.45,11.75,15.74,17.57,3.71,4.07,11.14,4.05,14.85,0,4-4.35,3.96-10.51,0-14.85-18.8-20.65-37.02-41.82-54.61-63.5-4.95-6.11-9.86-12.25-14.71-18.44-1.55-1.97-5.05-3.08-7.42-3.08-2.58,0-5.65,1.14-7.42,3.08s-3.2,4.63-3.08,7.42l.38,2.79c.5,1.78,1.4,3.32,2.7,4.63h0Z"/>
  </g>
</svg>