<?xml version="1.0" encoding="UTF-8"?>
<svg xmlns="http://www.w3.org/2000/svg" viewBox="0 0 385 386">
  <defs>
    <style>
      .cls-1 {
        fill: #efaaff;
      }

      .cls-2 {
        fill: #7b4887;
      }
    </style>
  </defs>
  <g id="Layer_5" data-name="Layer 5">
    <path class="cls-2" d="m221.61,257.03c-1.07,14.1-1.48,28.25-1.23,42.39.06,3.5,1.46,7.06,3.95,9.55,2.34,2.34,6.18,4.1,9.55,3.95s7.11-1.3,9.55-3.95,3.85-5.86,3.95-9.55c.26-9.28-1.43-18.58-3.33-27.62-1.73-8.22-3.48-16.41-4.6-24.75l.48,3.59c-1.41-10.69-2.05-21.46-1.9-32.24.05-3.28-1.5-7.3-3.95-9.55-2.23-2.05-4.74-3.31-7.75-3.71s-6.09-.02-8.61,1.6c-3.01,1.94-5.13,4.6-6.2,8.07-5.88,18.87-4.94,38.86-5.58,58.36-.17,5.27-.49,10.54-1.11,15.78h27c.34-13.33.69-26.65,1.03-39.98.09-3.4-1.57-7.16-3.95-9.55s-6.18-4.1-9.55-3.95-7.11,1.3-9.55,3.95-3.86,5.86-3.95,9.55c-.34,13.33-.69,26.65-1.03,39.98-.09,3.4,1.57,7.16,3.95,9.55s6.18,4.1,9.55,3.95,7.11-1.3,9.55-3.95l2.11-2.73c1.22-2.11,1.84-4.38,1.84-6.81,2.18-18.35.44-36.92,2.88-55.25l-.48,3.59c.71-5.18,1.77-10.31,3.32-15.3-8.84-1.2-17.68-2.39-26.52-3.59-.27,19.32,2.23,38.43,6.28,57.29,1.07,4.98,2.12,9.96,2.81,15l-.48-3.59c.55,4.08.85,8.19.73,12.31h27c-.25-14.14.16-28.28,1.23-42.39.25-3.29-1.68-7.28-3.95-9.55s-6.18-4.1-9.55-3.95-7.11,1.3-9.55,3.95l-2.11,2.73c-1.22,2.11-1.84,4.38-1.84,6.81h0Z"/>
    <path class="cls-2" d="m197.44,229.47c1.09,16.22,2.18,32.45,3.27,48.67,1.15,17.1.9,35.21,9.78,50.49,1.43,2.46,3.18,4.7,4.94,6.94,2.41,3.05,5.54,5.55,9.36,6.62,3,.84,6.04.76,9.03-.04,1.89-.5,3.7-1.53,5.45-2.44,1.86-.96,3.76-1.84,5.69-2.66l-3.22,1.36c6.77-2.83,13.88-4.77,21.15-5.77l-3.59.48c3.86-.51,7.74-.76,11.63-.73-1.2-8.84-2.39-17.68-3.59-26.52-7.07,2.46-14.14,4.92-21.2,7.38,5.54,3.14,11.07,6.29,16.61,9.43-.25-1.08-.45-2.16-.61-3.26l.48,3.59c-.72-5.36-.33-10.76.38-16.1l-.48,3.59c1.58-11.61,3.68-23.14,4.89-34.81,1.09-10.54,1.56-21.19.7-31.77-.57-7-1.57-14.02-3.22-20.85-.75-3.1-3.37-6.57-6.2-8.07s-5.54-2.01-8.61-1.6c-2.83.38-5.76,1.54-7.75,3.71l-2.11,2.73c-1.22,2.11-1.84,4.38-1.84,6.81-1.93,20.95-3.86,41.9-5.79,62.86,8.84-1.2,17.68-2.39,26.52-3.59-2.03-8.44-3.91-16.91-5.63-25.42-1.7-8.44-3.42-16.94-4.62-25.47l.48,3.59c-.13-1.03-.18-2.03-.06-3.07l-.48,3.59c.1-.56.24-1.08.45-1.6l-1.36,3.22c.21-.44.45-.84.72-1.23l-2.11,2.73c.6-.77,1.3-1.42,2.07-2.03l-2.73,2.11c3.25-2.48,6.69-4.69,9.73-7.46s5.41-5.81,7.8-9.01c1.75-2.35,3.28-4.88,4.52-7.54,1.65-3.54,3.18-7.21,4.01-11.05,1.63-7.56,1.79-15.8-.87-23.16-2.09-5.78-5.02-11.08-10.47-14.35s-12.65-3.36-18.71-1.32c-4.88,1.64-9.65,3.75-14.34,5.86-3.98,1.79-7.88,3.73-11.71,5.82l18.47,4.84c-1.84-2.8-3.64-5.64-4.99-8.72l1.36,3.22c-.77-1.85-1.35-3.74-1.62-5.73l.48,3.59c-.15-1.34-.15-2.67.02-4.02l-.48,3.59c.2-1.32.55-2.58,1.04-3.82l-1.36,3.22c.67-1.57,1.53-3.02,2.57-4.37l-2.11,2.73c1.16-1.46,2.48-2.74,3.94-3.89l-2.73,2.11c1.74-1.33,3.61-2.39,5.62-3.25l-3.22,1.36c3.15-1.29,6.45-2.06,9.81-2.52l-3.59.48c3.25-.42,6.51-.57,9.78-.64-3.18-7.68-6.36-15.36-9.55-23.05-1.17.97-2.36,1.91-3.56,2.85l2.73-2.11c-4.69,3.62-9.59,6.95-14.7,9.95-2.33,1.37-4.74,2.61-7.04,4.03-3.01,1.87-6.07,4.05-8.36,6.78-3.39,4.04-5.71,8.41-6.42,13.69-.4,3.01-.4,5.3.3,8.39.25,1.08.69,2.03,1.12,3.07s.85,2.12,1.49,3.09c4.31,6.56,11.08,9.92,18.45,11.95,3.46.95,6.93,1.87,10.39,2.81s6.79,1.57,9.95,2.89l-3.22-1.36c.78.36,1.5.77,2.19,1.28l-2.73-2.11c.69.57,1.28,1.19,1.83,1.9l-2.11-2.73c1.33,1.82,2.21,3.88,3.08,5.94l-1.36-3.22c3.36,8.02,6.13,16.27,8.28,24.69.83,3.25,3.33,6.38,6.2,8.07s7.16,2.41,10.4,1.36,6.42-3.08,8.07-6.2,2.29-6.79,1.36-10.4c-2.49-9.74-5.9-19.11-9.83-28.35-.74-1.73-1.49-3.48-2.57-5.04-2.24-3.25-4.86-6.24-8.41-8.11-4.85-2.56-10.37-3.66-15.63-5.08-4.47-1.21-9.14-2.15-13.43-3.92l3.22,1.36c-1.28-.55-2.49-1.19-3.6-2.03l2.73,2.11c-.7-.56-1.32-1.17-1.87-1.88l2.11,2.73c-.4-.55-.72-1.13-1-1.75l1.36,3.22c-.23-.6-.4-1.19-.51-1.82l.48,3.59c-.11-.89-.11-1.74,0-2.63l-.48,3.59c.15-.9.39-1.74.72-2.59l-1.36,3.22c.46-1.09,1.04-2.09,1.75-3.04l-2.11,2.73c.92-1.17,1.99-2.18,3.16-3.11l-2.73,2.11c4.38-3.36,9.56-5.66,14.21-8.64,5.76-3.68,11.25-7.82,16.52-12.17l2.11-2.73,1.36-3.22c.81-2.94.49-6.02-.68-8.79-.94-2.22-2.25-3.93-4.16-5.4-2.32-1.79-5.18-2.96-8.18-2.9-5.58.12-11.18.55-16.65,1.67-2.24.46-4.42,1.11-6.53,1.97-2.76,1.13-5.5,2.23-7.95,3.95-4.75,3.34-9.23,7.48-11.81,12.79-1.24,2.55-2.41,5.21-2.85,8.03-.31,2-.68,4.07-.61,6.12s.39,4.26.79,6.33c.67,3.43,2.21,6.78,3.8,9.86,1.17,2.27,2.56,4.43,3.96,6.56,1.84,2.8,4.68,5.43,8.07,6.2,3.6.82,7.12.43,10.4-1.36,4.92-2.69,9.97-5.13,15.13-7.32l-3.22,1.36c3.51-1.47,7.17-3.22,10.95-3.84l-3.59.48c.82-.11,1.61-.14,2.43-.07l-3.59-.48c.68.09,1.3.25,1.93.5l-3.22-1.36c.46.22.88.47,1.29.77l-2.73-2.11c.48.39.9.81,1.3,1.29l-2.11-2.73c.77,1,1.34,2.08,1.84,3.23l-1.36-3.22c.91,2.2,1.53,4.48,1.87,6.83l-.48-3.59c.35,2.68.32,5.37-.04,8.05l.48-3.59c-.44,3.08-1.3,6.06-2.5,8.93l1.36-3.22c-1.44,3.38-3.32,6.54-5.55,9.46l2.11-2.73c-2.34,3.01-5.03,5.7-8.04,8.04l2.73-2.11c-1.83,1.39-3.74,2.65-5.56,4.05-1.08.83-2.21,1.63-3.1,2.67-2.15,2.53-3.36,4.53-4.53,7.61-.72,1.89-.93,4.05-1.01,6.06s.37,4.21.68,6.23c.35,2.32.76,4.62,1.16,6.93,1.61,9.28,3.41,18.52,5.4,27.72,1.14,5.28,2.35,10.55,3.62,15.8.75,3.1,3.38,6.57,6.2,8.07s5.54,2.01,8.61,1.6c2.83-.38,5.76-1.54,7.75-3.71l2.11-2.73c1.22-2.11,1.84-4.38,1.84-6.81,1.93-20.95,3.86-41.9,5.79-62.86-8.84,1.2-17.68,2.39-26.52,3.59.89,3.68,1.58,7.41,2.09,11.16l-.48-3.59c2.07,15.75.91,31.68-1.18,47.37l.48-3.59c-.95,7.02-2.19,13.99-3.17,21.01-.63,4.5-1.28,9.02-1.35,13.57s.46,9.23,1.48,13.68c.71,3.08,3.4,6.59,6.2,8.07,3.09,1.63,6.98,2.55,10.4,1.36,7.07-2.46,14.14-4.92,21.2-7.38,3.2-1.11,6.42-3.09,8.07-6.2,1.44-2.73,2.01-5.54,1.6-8.61-.38-2.83-1.54-5.76-3.71-7.75-2.65-2.43-5.88-3.93-9.55-3.95-8.2-.05-16.53,1-24.47,3-3.48.88-6.9,1.98-10.24,3.31-2.54,1.01-5.07,2.07-7.55,3.22-1.65.76-3.23,1.67-4.88,2.42l3.22-1.36c-.38.14-.72.24-1.12.3l3.59-.48c-.25.02-.5.01-.75-.04l3.59.48c-.24-.05-.47-.12-.69-.23l3.22,1.36c-.22-.11-.43-.23-.63-.38l2.73,2.11c-.95-.74-1.69-1.69-2.43-2.63l2.11,2.73c-2.16-2.81-3.89-5.88-5.27-9.13l1.36,3.22c-1.81-4.37-2.91-8.94-3.56-13.61l.48,3.59c-1.26-9.46-1.53-19.09-2.17-28.61-.65-9.6-1.29-19.2-1.94-28.8-.37-5.46-.73-10.93-1.1-16.39-.24-3.6-1.34-6.93-3.95-9.55-2.34-2.34-6.18-4.1-9.55-3.95s-7.11,1.3-9.55,3.95-4.19,5.99-3.95,9.55h0Z"/>
    <path class="cls-2" d="m262.19,245.52c-4.23,19.24-8.46,38.49-12.69,57.73-.78,3.53-.5,7.22,1.36,10.4,1.64,2.8,4.85,5.47,8.07,6.2,3.46.79,7.33.62,10.4-1.36s5.11-4.6,6.2-8.07c5.43-17.17,10.88-34.37,17.88-50.98l-1.36,3.22c1.03-2.43,2.09-4.85,3.19-7.26-8.39-2.27-16.77-4.54-25.16-6.81.96,12.85.59,25.77-1.09,38.55l.48-3.59c-.67,4.97-1.53,9.92-2.59,14.82-.65,3.04-.54,5.9.68,8.79,1.09,2.59,2.96,5.1,5.52,6.46,2.12,1.12,4.42,1.74,6.81,1.84,3.21.14,7.37-1.57,9.55-3.95,8.49-9.3,16.97-18.6,25.46-27.9-7.52-4.38-15.04-8.76-22.56-13.13-1.57,5.17-3.41,10.26-5.51,15.24l1.36-3.22c-4.36,10.24-9.81,19.98-16.27,29.03l-1.36,3.22c-.56,1.79-.64,3.59-.24,5.38.38,2.83,1.54,5.76,3.71,7.75,1.72,1.58,3.73,2.75,5.96,3.47,3,.97,7.77.47,10.4-1.36,9.52-6.63,17.5-14.75,23.81-24.51,3.16-4.88,5.56-10.11,7.73-15.5,1.75-4.34,3.07-8.86,3.91-13.47,2.3-12.59,1.75-25.16.87-37.85-.84-12.01-2.03-23.99-3.59-35.93-1.87-14.32-4.11-28.57-6.91-42.73l-1.36-3.22c-.85-1.57-2.01-2.84-3.48-3.79-2.28-1.76-5.22-3.03-8.18-2.9-2.4.11-4.69.72-6.81,1.84-3.01,1.59-5.23,4.9-6.2,8.07-8.6,27.91-11.42,57.33-12.9,86.38-.41,7.97-.71,15.94-1.02,23.92-.13,3.38,1.6,7.19,3.95,9.55s6.18,4.1,9.55,3.95,7.11-1.3,9.55-3.95,3.76-5.83,3.95-9.55c1.43-27.27.31-54.63-3.29-81.7-1.17-8.76-2.49-17.49-4.11-26.18-.57-3.03-3.52-6.65-6.2-8.07s-5.54-2.01-8.61-1.6c-2.83.38-5.76,1.54-7.75,3.71-2.52,2.74-3.69,5.81-3.95,9.55-1.48,20.92-2.95,41.83-4.43,62.75-.41,5.88-.83,11.75-1.24,17.63h27c-3.41-26.83-5.33-53.84-5.7-80.88-.11-7.7-.09-15.4.05-23.1.06-3.27-1.51-7.31-3.95-9.55-2.23-2.05-4.74-3.31-7.75-3.71s-6.09-.02-8.61,1.6c-3.09,1.99-4.95,4.61-6.2,8.07-3.49,9.63-6.98,19.26-10.47,28.89l26.52,3.59c.11-17.6.21-35.19.32-52.79.03-5,.06-10.01.09-15.01.02-3.45-1.52-7.11-3.95-9.55s-6.18-4.1-9.55-3.95c-7.54.34-13.22,5.93-13.5,13.5-.36,9.65.55,19.32,2.29,28.81,1.75,9.54,4.86,18.54,8.62,27.45,1.2,2.03,2.81,3.64,4.84,4.84,1.55.99,3.22,1.52,5.02,1.6,1.79.4,3.59.32,5.38-.24,2.29-.64,4.27-1.8,5.96-3.47,3.5-4.39,6.69-8.88,9.21-13.91s4.56-10.11,6.26-15.36c2.85-8.76,4.62-17.83,6.33-26.87-8.84-1.2-17.68-2.39-26.52-3.59,1.72,19.1,5.06,38.07,10.38,56.5,1.42,4.91,2.97,9.78,4.65,14.61,1.11,3.2,3.09,6.42,6.2,8.07,2.73,1.44,5.54,2.01,8.61,1.6,2.83-.38,5.76-1.54,7.75-3.71l2.11-2.73c1.22-2.11,1.84-4.38,1.84-6.81,1.53-19.02,1.53-38.15-.02-57.17-8.84,1.2-17.68,2.39-26.52,3.59,6.78,20.33,12.37,41.05,16.7,62.04,1.22,5.9,2.34,11.83,3.36,17.76,8.68-2.39,17.36-4.79,26.04-7.18-5.4-20.15-10.15-40.48-14.2-60.94-1.95-9.81-3.44-19.72-5.47-29.52-1.07-5.16-2.7-10-4.91-14.79-.87-1.89-1.92-3.68-3.17-5.35-1.95-2.61-3.89-5.08-6.43-7.12s-5.23-4.02-8.13-5.65c-1.97-1.11-4-2.11-6.02-3.13-4.36-2.2-8.73-4.38-13.18-6.4-9.63-4.38-19.58-8.45-30.07-10.21-5.79-.97-11.64-1.62-17.52-1.33s-12.3,1.26-18.31,2.56c-9.33,2.02-18.56,4.7-27.69,7.46-9.66,2.91-19.1,6.33-28.35,10.36-8.27,3.6-16.26,7.92-23.54,13.26-2.58,1.89-5.11,3.85-7.56,5.89l-2.11,2.73c-.99,1.55-1.52,3.22-1.6,5.02-.39,2.88-.02,6.09,1.6,8.61,1.26,1.95,2.89,3.58,4.84,4.84,2.94,1.89,7.1,2.18,10.4,1.36,12.02-2.99,24.19-5.31,36.46-6.98l-3.59.48c23.58-3.16,47.47-3.87,71.19-2.09,6.66.5,13.31,1.2,19.93,2.08l-3.59-.48c14.21,1.92,28.29,4.73,42.14,8.42,3.4.91,7.36.42,10.4-1.36,2.8-1.64,5.47-4.85,6.2-8.07.79-3.46.62-7.33-1.36-10.4s-4.61-4.98-8.07-6.2c-16.51-5.85-33.92-9.14-51.39-10.25-17.46-1.11-35.15.38-52.25,4.07-4.18.9-8.42,1.84-12.46,3.26-2.8.99-5.69,2.1-8.22,3.67s-4.95,3.38-6.75,5.69c-1.44,1.86-2.83,3.64-3.47,5.96-.81,2.94-.49,6.02.68,8.79.94,2.22,2.25,3.93,4.16,5.4,2.51,1.94,5,2.62,8.18,2.9,21.73,1.92,43.47,3.83,65.2,5.75,6.09.54,12.22.91,18.28,1.68l-3.59-.48c2.91.39,5.74,1.01,8.45,2.14l-3.22-1.36c2.5,1.08,4.81,2.48,6.98,4.13l-2.73-2.11c5.17,4,9.33,9.09,13.38,14.18,2.01,2.53,6.47,3.95,9.55,3.95,3.31,0,7.27-1.47,9.55-3.95s4.12-5.95,3.95-9.55l-.48-3.59c-.64-2.29-1.8-4.27-3.47-5.96-2.17-2.72-4.36-5.43-6.72-7.99-2.96-3.2-6.21-5.95-9.72-8.55s-7.6-4.56-11.79-5.96c-4.62-1.54-9.64-1.92-14.47-2.35-16.89-1.51-33.79-2.98-50.68-4.47-9.49-.84-18.97-1.67-28.46-2.51,3.18,7.68,6.36,15.36,9.55,23.05.72-.92,1.53-1.74,2.44-2.47l-2.73,2.11c1.45-1.12,3.04-1.98,4.73-2.7l-3.22,1.36c4.2-1.73,8.73-2.74,13.16-3.72,4.85-1.08,9.74-1.94,14.66-2.61l-3.59.48c15.8-2.11,31.83-2.1,47.63,0l-3.59-.48c12.04,1.64,23.88,4.48,35.33,8.53,2.39-8.68,4.79-17.36,7.18-26.04-22.71-6.06-46.11-9.77-69.56-11.26-22.36-1.42-44.84-.63-67.05,2.33-13.57,1.81-27.01,4.19-40.29,7.49,4.38,7.52,8.76,15.04,13.13,22.56.9-.75,1.81-1.48,2.73-2.2l-2.73,2.11c8.32-6.42,17.59-11.43,27.25-15.53l-3.22,1.36c14.46-6.09,29.71-10.4,44.9-14.27,4.82-1.23,9.69-2.3,14.62-2.98l-3.59.48c6.09-.8,12.18-.88,18.28-.07l-3.59-.48c8.36,1.18,16.39,3.82,24.15,7.07l-3.22-1.36c5.16,2.18,10.2,4.61,15.2,7.12,4.77,2.39,9.73,4.64,13.98,7.91l-2.73-2.11c1.68,1.34,3.18,2.82,4.49,4.52l-2.11-2.73c1.45,1.94,2.62,4.05,3.58,6.27l-1.36-3.22c2.22,5.28,3.26,10.93,4.23,16.55,1.19,6.89,2.44,13.76,3.78,20.62,2.66,13.65,5.62,27.24,8.89,40.76,1.87,7.75,3.84,15.47,5.91,23.17.88,3.27,3.29,6.36,6.2,8.07s7.16,2.41,10.4,1.36,6.42-3.08,8.07-6.2l1.36-3.22c.64-2.39.64-4.79,0-7.18-3.65-21.12-8.52-42.02-14.63-62.56-1.72-5.78-3.53-11.53-5.44-17.24-1.06-3.19-3.13-6.44-6.2-8.07-2.73-1.44-5.54-2.01-8.61-1.6-2.83.38-5.76,1.54-7.75,3.71-2.31,2.52-4.24,6.01-3.95,9.55,1.54,19.02,1.55,38.15.02,57.17l26.52-3.59c-6.23-17.92-10.65-36.43-13.18-55.24l.48,3.59c-.54-4.09-1-8.18-1.37-12.29-.31-3.49-1.25-7.06-3.95-9.55-2.23-2.05-4.74-3.31-7.75-3.71s-6.09-.02-8.61,1.6c-2.82,1.82-5.55,4.65-6.2,8.07-2.21,11.64-4.51,23.36-9.09,34.34l1.36-3.22c-2.28,5.39-5.12,10.52-8.71,15.17l2.11-2.73c-.18.23-.36.45-.54.68l21.2,2.73-.19-.44,1.36,3.22c-3.94-9.42-6.61-19.32-7.97-29.45l.48,3.59c-.85-6.48-1.16-13.02-.91-19.55h-27c-.11,17.6-.21,35.19-.32,52.79-.03,5-.06,10.01-.09,15.01-.02,3.3,1.49,7.28,3.95,9.55,2.23,2.05,4.74,3.31,7.75,3.71s6.09.02,8.61-1.6c3.09-1.99,4.95-4.61,6.2-8.07,3.49-9.63,6.98-19.26,10.47-28.89l-26.52-3.59c-.49,27.04.53,54.1,3.09,81.02.73,7.67,1.58,15.32,2.56,22.96-.07,1.86.32,3.59,1.16,5.2.54,1.67,1.47,3.12,2.79,4.34,2.34,2.34,6.18,4.1,9.55,3.95s7.11-1.3,9.55-3.95,3.69-5.81,3.95-9.55c1.48-20.92,2.95-41.83,4.43-62.75.41-5.88.83-11.75,1.24-17.63-8.84,1.2-17.68,2.39-26.52,3.59,1.4,7.5,2.61,15.03,3.63,22.59l-.48-3.59c2.82,21.09,4.13,42.38,3.88,63.65-.07,6.02-.27,12.03-.58,18.04h27c.64-16.85,1.29-33.72,2.9-50.52.46-4.82,1.01-9.63,1.65-14.44l-.48,3.59c1.9-14.12,4.69-28.13,8.89-41.76h-26.04c2.4,12.14,4.44,24.36,6.09,36.62l-.48-3.59c2.4,17.85,4.32,35.94,4.74,53.96.12,5.17-.02,10.35-.68,15.48l.48-3.59c-.84,6.15-2.49,12.14-4.89,17.86l1.36-3.22c-2.41,5.68-5.53,11.02-9.27,15.92l2.11-2.73c-3.69,4.77-7.94,9.07-12.7,12.78l2.73-2.11c-.96.73-1.93,1.45-2.92,2.14,6.16,6.16,12.31,12.31,18.47,18.47,10.26-14.37,18.02-30.61,23.14-47.5l.48-3.59c.07-1.86-.32-3.59-1.16-5.2-1.09-2.59-2.96-5.1-5.52-6.46-2.12-1.12-4.42-1.74-6.81-1.84-3.21-.14-7.37,1.57-9.55,3.95-8.49,9.3-16.97,18.6-25.46,27.9,7.52,4.38,15.04,8.76,22.56,13.13,4.02-18.66,5.59-37.91,4.16-56.96-.23-3.07-.99-5.7-2.9-8.18-1.72-2.23-4.19-4.19-7.01-4.84-2.37-.54-4.8-.54-7.18,0-2.9.66-6.8,3.43-8.07,6.2-9.09,19.89-15.86,40.64-22.44,61.46,8.68,2.39,17.36,4.79,26.04,7.18,4.23-19.24,8.46-38.49,12.69-57.73.78-3.53.5-7.22-1.36-10.4-1.64-2.8-4.85-5.47-8.07-6.2-3.46-.79-7.33-.62-10.4,1.36-2.87,1.85-5.45,4.63-6.2,8.07h0Z"/>
    <path class="cls-2" d="m207.06,83.01c-8.34,3.03-16.69,6.07-25.03,9.1s-17.65,6.29-25.76,10.88-14.8,10.5-21.21,16.81c-5.98,5.9-11.74,12.03-17.28,18.35-6.89,7.85-13.4,16.01-19.66,24.36l23.31,13.63c17.19-24.2,33.23-49.21,48.04-74.93,4.17-7.25,8.25-14.56,12.23-21.92,1.7-3.15,2.32-6.91,1.36-10.4-.86-3.13-3.28-6.53-6.2-8.07-3.13-1.66-6.93-2.49-10.4-1.36s-5.99,3.18-8.07,6.2c-2.44,3.55-4.98,7.03-7.61,10.45l2.11-2.73c-9.37,12.11-19.91,23.28-31.47,33.33,7.52,4.38,15.04,8.76,22.56,13.13,1.64-6.39,3.85-12.61,6.41-18.7l-1.36,3.22c3.9-9.22,8.55-18.08,13.21-26.94,2.57-4.88,2.36-10.57-1.06-14.99-1.47-1.91-3.18-3.22-5.4-4.16-2.57-1.08-6.09-1.72-8.79-.68-7.27,2.8-14.55,5.6-21.82,8.4s-15.35,5.7-22.76,9.14c-6.75,3.14-13.11,7.54-18.09,13.12-4.63,5.18-8.46,11.01-11.44,17.28-3.43,7.21-6.15,14.73-8.7,22.29-1.08,3.21-.31,7.54,1.36,10.4s4.85,5.47,8.07,6.2c3.46.79,7.33.62,10.4-1.36s4.96-4.61,6.2-8.07c3.71-10.33,7.7-20.56,11.97-30.68l-1.36,3.22c1.92-4.54,3.88-9.05,5.91-13.54,1.62-3.59,3.23-7.22,5.62-10.38l-2.11,2.73c.96-1.23,2.03-2.35,3.27-3.31l-2.73,2.11c.87-.64,1.78-1.17,2.77-1.61l-3.22,1.36.34-.14-10.4-24.67c-7.14,5.15-15.23,8.78-22.39,13.89-2.6,1.85-5.17,3.79-7.51,5.96s-4.13,4.48-6.01,6.93c-3.56,4.66-5.9,10.35-7.28,16.02s-1.97,11.98-2.51,18-1.05,11.78-1.57,17.67c-1.04,11.7-2.08,23.39-3.11,35.09-1.18,13.27-2.36,26.55-3.53,39.82l.48,3.59c.42,1.76,1.22,3.29,2.42,4.59,1.72,2.23,4.19,4.19,7.01,4.84,2.37.54,4.8.54,7.18,0,3.03-.69,6.65-3.41,8.07-6.2,8.5-16.75,16.36-33.82,23.7-51.1,7.74-18.23,15.01-36.64,21.81-55.23,3.65-9.98,7.17-20,10.61-30.05l-26.52-3.59c1.12,17.45.92,34.98-.64,52.39-.45,5-1,9.99-1.67,14.96l.48-3.59c-1.14,8.5-2.6,16.96-4.37,25.36,8.68,2.39,17.36,4.79,26.04,7.18,3.59-17.53,7.17-35.06,10.76-52.59,1.02-4.97,2.03-9.95,3.05-14.92-8.68-2.39-17.36-4.79-26.04-7.18-3.67,18.81-6.19,37.9-7.48,57.03-.35,5.11-.6,10.23-.76,15.35l.48,3.59,1.36,3.22c1.49,2.54,3.78,4.39,6.46,5.52,5.11,2.16,10.68.94,14.75-2.79,14.53-13.33,28.78-26.96,42.73-40.88,4-4,7.98-8.01,11.94-12.06-7.52-4.38-15.04-8.76-22.56-13.13-1.5,5.02-3.37,9.91-5.39,14.74l1.36-3.22c-6.43,15.22-14.54,29.91-18.9,45.93-1.42,5.23-2.27,10.56-2.87,15.95l.48,3.59c.42,1.76,1.22,3.29,2.42,4.59,1.72,2.23,4.19,4.19,7.01,4.84,2.37.54,4.8.54,7.18,0,1.76-.42,3.29-1.22,4.59-2.42,1.47-.95,2.63-2.21,3.48-3.79,7.65-17.74,15.44-35.54,25.73-51.94,2.89-4.6,5.97-9.08,9.29-13.38l-2.11,2.73c6.23-8.03,13.3-15.39,21.33-21.63l-2.73,2.11c.32-.24.63-.49.95-.73l-16.36-21.2c-18.94,22.31-35.13,46.9-47.58,73.4-3.79,8.07-7.28,16.3-10.47,24.62-1.18,3.08-.24,7.66,1.36,10.4s4.85,5.47,8.07,6.2c3.46.79,7.33.62,10.4-1.36l2.73-2.11c1.67-1.68,2.83-3.67,3.47-5.96,1.26-3.28,2.57-6.54,3.93-9.77l-1.36,3.22c8.31-19.68,18.59-38.52,30.67-56.15,3.39-4.95,6.92-9.8,10.58-14.55l-2.11,2.73c3.04-3.94,6.17-7.8,9.39-11.59,2.25-2.65,4.12-5.9,3.95-9.55-.14-3.05-1.02-5.75-2.9-8.18-1.72-2.23-4.19-4.19-7.01-4.84-3.29-.75-7.58-.78-10.4,1.36-6.31,4.79-12.27,9.88-17.64,15.72s-10.17,12.06-14.63,18.54c-7.9,11.49-14.36,23.91-20.24,36.54-3.35,7.19-6.51,14.46-9.65,21.74,8.39,2.27,16.77,4.54,25.16,6.81.06-.56.13-1.12.2-1.68l-.48,3.59c1.3-9.62,4.49-18.81,8.25-27.72l-1.36,3.22c6.15-14.5,13.68-28.5,18.22-43.63l.48-3.59c.07-1.86-.32-3.59-1.16-5.2-1.09-2.59-2.96-5.1-5.52-6.46-5.28-2.79-12.05-2.3-16.36,2.11-13.79,14.09-27.87,27.9-42.24,41.4-4.12,3.87-8.27,7.72-12.44,11.54,7.68,3.18,15.36,6.36,23.05,9.55.47-14.64,1.68-29.24,3.63-43.75l-.48,3.59c1.13-8.38,2.51-16.73,4.13-25.04.7-3.6.54-7.15-1.36-10.4-1.64-2.8-4.85-5.47-8.07-6.2-3.46-.79-7.33-.62-10.4,1.36-2.84,1.83-5.5,4.64-6.2,8.07-3.59,17.53-7.17,35.06-10.76,52.59-1.02,4.97-2.03,9.95-3.05,14.92-.73,3.58-.53,7.18,1.36,10.4,1.64,2.8,4.85,5.47,8.07,6.2,3.46.79,7.33.62,10.4-1.36,2.85-1.84,5.48-4.63,6.2-8.07,5.24-24.83,7.97-50.3,7.87-75.68-.03-6.88-.27-13.76-.71-20.62-.22-3.44-1.31-7.12-3.95-9.55-2.23-2.05-4.74-3.31-7.75-3.71s-6.09-.02-8.61,1.6c-3.06,1.97-5.02,4.6-6.2,8.07-7.18,21.01-14.76,41.88-23,62.49-2.35,5.89-4.76,11.75-7.22,17.6l1.36-3.22c-7.58,17.96-15.71,35.69-24.53,53.07,8.39,2.27,16.77,4.54,25.16,6.81,2.34-26.38,4.68-52.76,7.02-79.14.62-7.04,1.08-14.11,2-21.12l-.48,3.59c.59-4.36,1.49-8.68,3.18-12.76l-1.36,3.22c1.04-2.42,2.36-4.68,3.96-6.77l-2.11,2.73c2.01-2.55,4.37-4.76,6.93-6.75l-2.73,2.11c7.57-5.8,16.42-9.61,24.14-15.19,2.79-2.02,5.4-4.54,6.2-8.07.69-3.02.53-5.92-.68-8.79-1.09-2.59-2.96-5.1-5.52-6.46-3-1.59-7.1-2.69-10.4-1.36-1.78.72-3.67,1.38-5.31,2.4s-3.15,2.23-4.58,3.49c-2.16,1.89-3.93,4.35-5.51,6.71-2.29,3.42-3.88,7.28-5.55,11.02-4.4,9.83-8.57,19.77-12.48,29.8-2.03,5.19-3.98,10.4-5.86,15.65,8.68,2.39,17.36,4.79,26.04,7.18,1.68-4.97,3.39-9.92,5.42-14.76l-1.36,3.22c2.41-5.72,5.27-11.27,9.06-16.21l-2.11,2.73c2.28-2.93,4.86-5.59,7.79-7.88l-2.73,2.11c3.96-3.03,8.41-5.26,12.99-7.19l-3.22,1.36c6.15-2.57,12.41-4.86,18.63-7.25s13-5.01,19.5-7.51c-5.08-6.61-10.16-13.22-15.25-19.83-8.24,15.65-16.56,31.63-20.97,48.86-.76,2.97-.51,5.98.68,8.79,1.09,2.59,2.96,5.1,5.52,6.46,2.12,1.12,4.42,1.74,6.81,1.84,3.6.16,6.94-1.69,9.55-3.95,12.01-10.45,22.79-22.11,32.52-34.7,2.99-3.87,5.9-7.79,8.67-11.81l-23.31-13.63c-14.12,26.11-29.47,51.55-46,76.19-4.66,6.95-9.42,13.83-14.26,20.65-1.92,2.71-2.21,7.32-1.36,10.4s3.28,6.53,6.2,8.07c3.13,1.66,6.93,2.49,10.4,1.36l3.22-1.36c2.03-1.2,3.64-2.81,4.84-4.84,1.11-1.49,2.24-2.96,3.37-4.43l-2.11,2.73c9.87-12.75,20.56-24.9,32.09-36.17,3.14-3.07,6.38-6.03,9.84-8.73l-2.73,2.11c5.28-4.07,11.06-7.21,17.19-9.8l-3.22,1.36c6.13-2.57,12.43-4.74,18.67-7.01l19.7-7.16c3.36-1.22,6.21-3.03,8.07-6.2,1.69-2.89,2.41-7.16,1.36-10.4s-3.08-6.42-6.2-8.07-7.02-2.59-10.4-1.36h0Z"/>
    <path class="cls-2" d="m123.84,158.32c-3.09,2.35-6.1,4.71-8.78,7.52s-5.02,5.85-7.24,8.96c-3.94,5.53-6.75,11.64-9.3,17.91-5.17,12.71-7.09,26.35-8.65,39.89-.93,8.03-1.63,16.09-2.69,24.1l.48-3.59c-.58,4.32-1.27,8.63-2.16,12.9,8.84,1.2,17.68,2.39,26.52,3.59.02-19.62.36-39.24,1.04-58.85.67-19.61,1.67-39.21,3-58.79.75-11.07,1.6-22.13,2.56-33.18l-.48-3.59c-.42-1.76-1.22-3.29-2.42-4.59-1.72-2.23-4.19-4.19-7.01-4.84-2.37-.54-4.8-.54-7.18,0-1.76.42-3.29,1.22-4.59,2.42-1.47.95-2.63,2.21-3.48,3.79-6.65,15.68-12.72,31.57-17.9,47.8-4.85,15.18-8.99,30.58-12.41,46.14-1.94,8.82-3.64,17.68-5.11,26.59-.56,1.79-.64,3.59-.24,5.38.08,1.8.62,3.47,1.6,5.02,1.64,2.8,4.85,5.47,8.07,6.2,3.46.79,7.33.62,10.4-1.36,2.88-1.86,5.43-4.63,6.2-8.07,3.92-17.34,6.48-35.04,7.72-52.77.22-3.17-1.63-7.42-3.95-9.55s-4.74-3.31-7.75-3.71-6.09-.02-8.61,1.6c-2.79,1.8-5.62,4.66-6.2,8.07-5.38,31.5-7.87,63.47-6.93,95.42.25,8.62.75,17.22,1.48,25.81,0,2.44.62,4.71,1.84,6.81,1.2,2.03,2.81,3.64,4.84,4.84,4.28,2.51,9.33,2.31,13.63,0,11.59-6.23,16.43-19.26,19.03-31.38,2.84-13.22,4.12-26.75,3.91-40.26-.11-7.12-.38-14.27.55-21.35l-.48,3.59c.74-5.34,2.23-10.5,4.31-15.47l-1.36,3.22c3.62-8.5,8.8-16.2,14.43-23.5l-2.11,2.73c3.19-4.12,6.54-8.12,9.89-12.1-7.68-3.18-15.36-6.36-23.05-9.55,1.47,20.5,1.84,41.07,1.07,61.61-.22,5.86-.53,11.71-.93,17.55-.22,3.17,1.63,7.41,3.95,9.55,2.23,2.05,4.74,3.31,7.75,3.71s6.09.02,8.61-1.6c2.91-1.87,5.36-4.62,6.2-8.07,4.51-18.51,8.54-37.14,12.08-55.86,1.01-5.33,1.97-10.66,2.9-16-8.68-2.39-17.36-4.79-26.04-7.18-5.46,33.17-9.48,66.59-11.91,100.11-.67,9.19-1.21,18.39-1.64,27.59l.48,3.59c.42,1.76,1.22,3.29,2.42,4.59,1.72,2.23,4.19,4.19,7.01,4.84,5.84,1.33,12.16-.87,15.25-6.2,4.61-7.96,6.94-16.88,9.1-25.74,2.13-8.74,4.26-17.48,6.39-26.21,1.21-4.97,2.42-9.94,3.64-14.91-8.84-1.2-17.68-2.39-26.52-3.59.09,16.44.19,32.9,1.71,49.28.53,5.68,1.25,11.34,2.08,16.98.42,1.76,1.22,3.29,2.42,4.59.95,1.47,2.21,2.63,3.79,3.48,2.73,1.44,5.54,2.01,8.61,1.6,2.83-.38,5.76-1.54,7.75-3.71l2.11-2.73c1.22-2.11,1.84-4.38,1.84-6.81,1.69-17.5,3.38-34.99,5.06-52.49.31-3.25-1.73-7.32-3.95-9.55-2.34-2.34-6.18-4.1-9.55-3.95s-7.11,1.3-9.55,3.95l-2.11,2.73c-1.22,2.11-1.84,4.38-1.84,6.81-2.21,20.32-2.92,40.79-2.09,61.21.23,5.76.6,11.52,1.07,17.27,6.77-3.89,13.54-7.77,20.31-11.66-6.38-3.3-13.11-6.08-20-8.12-2.9-.85-5.83-1.57-8.8-2.14s-6.03-.95-8.87-2.13l3.22,1.36c-.98-.44-1.89-.96-2.75-1.6l2.73,2.11c-1.06-.83-1.97-1.77-2.8-2.83l2.11,2.73c-1.19-1.6-2.12-3.34-2.91-5.17l1.36,3.22c-1.67-3.98-2.83-8.2-3.87-12.38-1.15-4.63-2.04-9.31-2.69-14.04l.48,3.59c-.52-3.94-.88-7.9-1.05-11.87-8.39,2.27-16.77,4.54-25.16,6.81,2.95,4.29,5.89,8.58,8.84,12.86,2.7,3.93,5.9,7.82,7.84,12.19l-1.36-3.22c.42,1.02.74,2.05.92,3.15l-.48-3.59c.1.81.11,1.6.03,2.41l.48-3.59c-.13.85-.35,1.64-.67,2.43l1.36-3.22c-.36.78-.78,1.49-1.29,2.18l2.11-2.73c-.69.88-1.48,1.65-2.35,2.35l2.73-2.11c-1.02.77-2.1,1.39-3.27,1.9l3.22-1.36c-2.09.85-4.27,1.33-6.5,1.63l3.59-.48c-1.79.22-3.71.54-5.52.45l3.59.48c-.18-.02-.36-.07-.52-.15l3.22,1.36-.2-.15,4.84,4.84-.13-.22,1.84,6.81v-.18c-.63,2.27-1.24,4.54-1.86,6.81l.08-.14-4.84,4.84.14-.11-3.22,1.36.17-.06-3.59.48.17-.02-3.59-.48.14.04-5.96-3.47.08.09-3.95-9.55-.02.16c-.38,3.2,1.78,7.37,3.95,9.55,2.34,2.34,6.18,4.1,9.55,3.95s7.11-1.3,9.55-3.95l2.11-2.73c1.22-2.11,1.84-4.38,1.84-6.81.08-.64-.32-3.09-.46-3.75-.51-2.23-1.95-4.29-3.47-5.96-2.08-2.29-5-3.45-7.97-3.84-2.6-.35-4.93-.02-7.34,1-2.8,1.18-5.13,3.08-6.68,5.78-3.77,6.54-1.36,15.14,5.09,18.95,2.76,1.63,5.96,2.23,9.13,1.99,6.88-.51,14.31-1.4,20.11-5.52,3.39-2.41,6.5-5.19,8.48-8.94s3.27-8.07,2.8-12.31c-.24-2.17-.46-4.31-1.24-6.35s-1.71-4.27-2.88-6.23c-1.34-2.24-2.9-4.36-4.38-6.51-3.65-5.31-7.29-10.62-10.94-15.93-1.7-2.48-3.64-4.34-6.46-5.52s-5.94-1.6-8.79-.68c-2.23.72-4.23,1.89-5.96,3.47-2.38,2.18-4.1,6.32-3.95,9.55.56,12.7,2.63,25.53,6.54,37.64,2,6.22,4.72,12.49,9.5,17.12,3.31,3.21,7.18,5.34,11.55,6.73,2.5.8,5.13,1.11,7.7,1.62,6.23,1.23,12.31,3.1,18.16,5.54l-3.22-1.36c2.37,1,4.69,2.09,6.97,3.27,4.35,2.25,9.29,2.54,13.63,0,3.85-2.25,7.07-7.03,6.69-11.66-1.68-20.37-1.86-40.85-.5-61.24.38-5.76.89-11.5,1.52-17.24h-27c-1.69,17.5-3.38,34.99-5.06,52.49,8.84-1.2,17.68-2.39,26.52-3.59-.14-.97-.28-1.94-.41-2.91l.48,3.59c-2.64-19.8-2.78-39.81-2.89-59.75-.02-3.32-1.46-7.25-3.95-9.55-2.23-2.05-4.74-3.31-7.75-3.71s-6.09-.02-8.61,1.6c-2.91,1.88-5.36,4.62-6.2,8.07-2.46,10.1-4.93,20.2-7.39,30.3-1.19,4.87-2.36,9.75-3.57,14.62-1.14,4.6-2.41,9.18-4.24,13.57l1.36-3.22c-.76,1.77-1.6,3.48-2.57,5.15,8.39,2.27,16.77,4.54,25.16,6.81,1.13-24.16,3.07-48.28,5.83-72.31.79-6.86,1.65-13.72,2.57-20.57l-.48,3.59c1.41-10.44,2.96-20.85,4.67-31.24.56-1.79.64-3.59.24-5.38-.08-1.8-.62-3.47-1.6-5.02-1.64-2.8-4.85-5.47-8.07-6.2-3.46-.79-7.33-.62-10.4,1.36-2.79,1.8-5.61,4.66-6.2,8.07-3.27,18.77-7.01,37.46-11.25,56.03-1.2,5.28-2.45,10.56-3.73,15.83,8.84,1.2,17.68,2.39,26.52,3.59,1.4-20.5,1.69-41.08.85-61.61-.24-5.85-.57-11.71-.99-17.55-.17-2.35-.64-4.75-1.84-6.81-1.49-2.54-3.78-4.39-6.46-5.52-2.3-.97-4.53-1.25-7-.92-2.74.37-5.9,1.52-7.75,3.71-9,10.68-18.29,21.61-24.54,34.19-3.35,6.75-6.17,13.92-7.36,21.39-1.36,8.48-1.41,16.84-1.26,25.4.15,8.6-.19,17.16-1.32,25.69l.48-3.59c-1.09,8.05-2.45,16.46-5.58,24.01l1.36-3.22c-.94,2.21-2.07,4.32-3.52,6.25l2.11-2.73c-1.01,1.3-2.14,2.46-3.43,3.48l2.73-2.11c-.76.57-1.55,1.08-2.38,1.53,6.77,3.89,13.54,7.77,20.31,11.66-2.23-26.26-2.23-52.69.01-78.94.64-7.45,1.46-14.89,2.45-22.31l-.48,3.59c.74-5.48,1.58-10.95,2.51-16.4-8.84-1.2-17.68-2.39-26.52-3.59-.49,6.98-1.2,13.93-2.13,20.87l.48-3.59c-1.29,9.51-2.99,18.96-5.11,28.32,8.68,2.39,17.36,4.79,26.04,7.18,2.58-15.56,5.86-31.01,9.85-46.27,3.99-15.26,8.68-30.34,14.05-45.18,3.05-8.41,6.32-16.74,9.79-24.99l-1.36,3.22c.12-.29.24-.58.37-.87l-25.16-6.81c-1.69,19.55-3.06,39.13-4.1,58.72s-1.76,39.21-2.14,58.82c-.22,11.09-.33,22.19-.35,33.28,0,3.31,1.47,7.27,3.95,9.55,2.23,2.05,4.74,3.31,7.75,3.71s6.09.02,8.61-1.6c2.85-1.84,5.49-4.64,6.2-8.07,3.17-15.29,3.99-30.92,6.05-46.36l-.48,3.59c1.46-10.81,3.67-21.52,7.91-31.62l-1.36,3.22c2.33-5.49,5.23-10.72,8.87-15.46l-2.11,2.73c2.77-3.56,5.93-6.78,9.5-9.55l-2.73,2.11.31-.24c1.57-.85,2.84-2.01,3.79-3.48,1.19-1.3,2-2.83,2.42-4.59.89-3.23.49-7.53-1.36-10.4s-4.63-5.42-8.07-6.2-7.59-.79-10.4,1.36h0Z"/>
    <path class="cls-2" d="m174.28,324.89c-.18-2.93-.58-6-1.53-8.81s-2.06-5.28-3.33-7.8c-1.72-3.43-3.7-6.72-5.2-10.26l1.36,3.22c-2.31-5.58-3.67-11.45-4.5-17.42l.48,3.59c-1.2-8.93-1.26-17.95-1.46-26.94-.22-9.86-.44-19.71-.66-29.57h-27c2.9,26.5,5.8,53,8.69,79.5.82,7.45,1.63,14.91,2.45,22.36-.07,1.86.32,3.59,1.16,5.2.54,1.67,1.47,3.12,2.79,4.34,2.34,2.34,6.18,4.1,9.55,3.95s7.11-1.3,9.55-3.95c2.27-2.47,4.34-6.06,3.95-9.55-2.9-26.5-5.8-53-8.69-79.5-.82-7.45-1.63-14.91-2.45-22.36.07-1.86-.32-3.59-1.16-5.2-.54-1.67-1.47-3.12-2.79-4.34-2.34-2.34-6.18-4.1-9.55-3.95s-7.11,1.3-9.55,3.95-4.03,5.92-3.95,9.55c.28,12.54.52,25.08.84,37.62.15,5.72.38,11.44,1.06,17.13.79,6.6,1.77,13.18,3.95,19.49,1.33,3.83,2.95,7.6,4.84,11.19,1.44,2.73,2.99,5.39,4.2,8.23l-1.36-3.22c.79,1.91,1.4,3.86,1.68,5.91l-.48-3.59c.05.41.08.82.11,1.24.22,3.59,1.35,6.95,3.95,9.55,2.34,2.34,6.18,4.1,9.55,3.95s7.11-1.3,9.55-3.95c2.34-2.55,4.17-5.98,3.95-9.55h0Z"/>
  </g>
  <g id="Layer_4" data-name="Layer 4">
    <path class="cls-1" d="m243.05,126.39c-8.15.15-16.48,1.16-24.37,3.25-3.74.99-7.39,2.6-10.87,4.27-2.46,1.19-4.8,2.6-6.98,4.25-2.86,2.16-5.63,4.32-7.89,7.12s-4.53,5.81-6.03,9.25c-3.24,7.38-4.92,15.26-6.31,23.17-2.78,15.87-3.8,31.95-3.47,48.05.31,15,1.64,29.96,3.04,44.9,1.58,16.89,3.25,33.78,3.71,50.75.1,3.52,1.44,7.03,3.95,9.55,2.34,2.34,6.18,4.1,9.55,3.95s7.11-1.3,9.55-3.95,4.05-5.92,3.95-9.55c-.47-17.44-2.22-34.81-3.84-52.18s-3.07-34.32-2.97-51.54c.06-9.78.64-19.55,1.94-29.24l-.48,3.59c.66-4.8,1.48-9.57,2.51-14.31.91-4.18,1.78-8.5,3.41-12.48l-1.36,3.22c.96-2.26,2.17-4.37,3.65-6.32l-2.11,2.73c1.62-2.08,3.49-3.91,5.56-5.52l-2.73,2.11c2.84-2.16,5.96-3.87,9.25-5.27l-3.22,1.36c4.97-2.07,10.24-3.15,15.56-3.86l-3.59.48c3.52-.46,7.05-.72,10.6-.79s7.05-1.46,9.55-3.95c2.34-2.34,4.1-6.18,3.95-9.55s-1.3-7.11-3.95-9.55-5.91-4.02-9.55-3.95h0Z"/>
    <path class="cls-1" d="m242.3,123.28c-9.42-.05-19.03,1.3-28.04,4.08-2.16.67-4.35,1.87-5.96,3.47-2.11,2.11-3.32,4.83-3.71,7.75-.33,2.47-.05,4.7.92,7,1.08,2.55,2.97,5.17,5.52,6.46,5.97,3.01,12.53,4.41,19.2,3.7,5.63-.59,11.04-1.9,16.6-2.9,3.16-.56,6.51-3.54,8.07-6.2,1.69-2.89,2.41-7.16,1.36-10.4s-3.08-6.42-6.2-8.07l-3.22-1.36c-2.39-.64-4.79-.64-7.18,0-3.99.71-7.91,1.74-11.93,2.29l3.59-.48c-2.56.33-5.13.43-7.69.09l3.59.48c-1.58-.24-3.08-.65-4.56-1.25l3.22,1.36c-.41-.18-.81-.37-1.21-.57-1.07,8.22-2.15,16.45-3.22,24.67,4.26-1.32,8.61-2.27,13.03-2.88l-3.59.48c3.79-.5,7.6-.74,11.42-.72,3.45.02,7.11-1.52,9.55-3.95s4.1-6.18,3.95-9.55-1.3-7.11-3.95-9.55-5.88-3.93-9.55-3.95h0Z"/>
    <path class="cls-1" d="m194.31,318.26c-1.52-8.35-2.86-16.73-4-25.15l.48,3.59c-2.06-15.37-3.46-30.83-4.08-46.33-.61-15.28-.15-30.53.08-45.81.13-8.49.37-16.99,1.48-25.41l-.48,3.59c1.37-10.07,4.02-20.23,7.97-29.6l-1.36,3.22c1.93-4.51,4.28-8.82,7.25-12.72l-2.11,2.73c2.22-2.86,4.74-5.45,7.59-7.69l-2.73,2.11c2.99-2.31,6.26-4.19,9.74-5.66l-3.22,1.36c4.18-1.72,8.57-2.83,13.04-3.44l-3.59.48c6.23-.81,12.52-.69,18.75.08,3.19.39,7.38-1.79,9.55-3.95,2.34-2.34,4.1-6.18,3.95-9.55s-1.3-7.11-3.95-9.55l-2.73-2.11c-2.11-1.22-4.38-1.84-6.81-1.84-8.09-.99-16.03-.66-24.07.66-3.43.56-6.81,1.44-10.06,2.68-4.16,1.59-8.28,3.39-11.98,5.89-7.64,5.16-13.91,11.92-18.5,19.93-4.07,7.1-6.91,14.98-9.12,22.84-2.51,8.91-4.06,17.97-4.83,27.2-.72,8.56-.73,17.15-.86,25.73s-.42,17.39-.31,26.1c.11,8.73.47,17.46,1.07,26.17,1.26,18.46,3.56,36.87,6.68,55.11.37,2.17.76,4.34,1.15,6.51.58,3.16,3.53,6.5,6.2,8.07,2.89,1.69,7.16,2.41,10.4,1.36s6.42-3.08,8.07-6.2l1.36-3.22c.64-2.39.64-4.79,0-7.18h0Z"/>
    <path class="cls-1" d="m166.06,196.71c-6.04.1-12.07.2-18.11.3-3.72.06-7.23.2-10.92.75-2.13.32-4.04,1.18-6,2.08-.48.22-.91.48-1.34.78-1.29.9-2.71,1.86-3.72,3.1l22.56,5.96c-.27-.63-.43-1.25-.53-1.92l.48,3.59c-.04-.54-.04-1.06.02-1.6l-.48,3.59.07-.39c.56-1.79.64-3.59.24-5.38-.08-1.8-.62-3.47-1.6-5.02-1.64-2.8-4.85-5.47-8.07-6.2-3.46-.79-7.33-.62-10.4,1.36-2.8,1.8-5.6,4.66-6.2,8.07-.32,1.81-.72,3.73-.58,5.58s.3,3.81,1.01,5.51c.64,2.29,1.8,4.27,3.47,5.96,1.68,1.67,3.67,2.83,5.96,3.47,2.39.64,4.79.64,7.18,0,2.29-.64,4.27-1.8,5.96-3.47.3-.37.62-.69.98-.99l-2.73,2.11c.48-.34.96-.61,1.5-.85l-3.22,1.36c.91-.35,1.84-.55,2.8-.68l-3.59.48c3.99-.45,8.1-.26,12.11-.33,4.38-.07,8.77-.15,13.15-.22,3.5-.06,7.06-1.47,9.55-3.95,2.34-2.34,4.1-6.18,3.95-9.55s-1.3-7.11-3.95-9.55-5.91-4.02-9.55-3.95h0Z"/>
    <path class="cls-1" d="m134.47,220.57c4.81-.01,9.62-.03,14.43-.04l6.96-.02c2.34,0,4.74-.17,7.07.03l-3.59-.48c.24.03.47.08.7.16l-3.22-1.36c.21.07.4.17.57.29l-2.73-2.11c.15.11.28.23.4.37l-2.11-2.73c.11.14.21.29.28.46l-1.36-3.22c.11.27.17.51.22.79l-.48-3.59c.02.3.02.56,0,.86l.48-3.59c-.05.3-.12.57-.22.86l1.36-3.22c-.16.38-.34.7-.59,1.03l2.11-2.73c-.12.15-.26.29-.41.41l2.73-2.11c-.42.32-.84.56-1.31.77l3.22-1.36c-.61.23-1.23.38-1.87.48l3.59-.48c-3.38.44-6.88.33-10.28.44-3.63.12-7.27.23-10.9.33s-7.03,1.44-9.55,3.95c-2.34,2.34-4.1,6.18-3.95,9.55s1.3,7.11,3.95,9.55,5.83,3.75,9.55,3.95c19.38,1.04,38.82,1,58.2-.15,5.52-.33,11.04-.75,16.55-1.26,1.86.07,3.59-.32,5.2-1.16,1.67-.54,3.12-1.47,4.34-2.79,2.34-2.34,4.1-6.18,3.95-9.55s-1.3-7.11-3.95-9.55c-2.5-2.29-6.03-4.28-9.55-3.95-19.33,1.78-38.76,2.47-58.16,2.04-5.53-.12-11.06-.33-16.59-.63v27c4.71-.13,9.41-.28,14.12-.43,7-.23,14.8-.2,20.01-5.74,1.71-1.82,2.65-3.4,3.58-5.59s1.52-4.48,1.38-6.92c-.38-6.82-4.61-13.05-11.39-14.94-3.12-.87-6.42-.68-9.62-.67l-6.96.02c-5.39.02-10.78.03-16.17.05-3.47.01-7.09,1.5-9.55,3.95s-4.1,6.18-3.95,9.55,1.3,7.11,3.95,9.55,5.89,3.97,9.55,3.95h0Z"/>
    <path class="cls-1" d="m210.44,223.49l7.69-1.64c3.06-.65,6.61-3.45,8.07-6.2s2.01-5.54,1.6-8.61c-.38-2.83-1.54-5.76-3.71-7.75-2.66-2.44-5.87-3.91-9.55-3.95-3.39-.04-6.76-.28-10.12-.73l3.59.48c-1.12-.16-2.23-.33-3.34-.53-1.2,8.84-2.39,17.68-3.59,26.52,7.09-.19,14.24.06,21.27.98l-3.59-.48c.26.03.52.1.77.19l-3.22-1.36c.21.08.41.19.58.34l-2.73-2.11.19.2-2.11-2.73c.11.14.2.3.27.46l-1.36-3.22c.07.17.11.35.13.53l-.48-3.59c.02.19.02.38,0,.56l.48-3.59c-.05.3-.11.56-.22.84l1.36-3.22c-.13.28-.27.5-.46.75l2.11-2.73c-.13.15-.27.28-.42.39l2.73-2.11c-.21.15-.43.27-.66.38l3.22-1.36c-.37.14-.7.24-1.09.31l3.59-.48c-.79.1-1.54.07-2.33-.01l3.59.48c-2.02-.28-4.01-.65-6.04-.86s-4.09.16-6.1.56c-3.05.61-6.63,3.48-8.07,6.2s-2.01,5.54-1.6,8.61c.38,2.83,1.54,5.76,3.71,7.75,2.74,2.52,5.82,3.69,9.55,3.95,5.63.39,11.31,1.22,16.91.25,4.73-.82,9.16-4.05,11.64-8.14,3.04-5.03,3.2-11.56.22-16.67-2.31-3.95-6.25-6.69-10.61-7.91-2.58-.72-5.37-.86-8.04-.84-5.27.03-10.94.29-15.84,2.36-1.76.42-3.29,1.22-4.59,2.42-1.47.95-2.63,2.21-3.48,3.79-1.69,2.89-2.41,7.16-1.36,10.4s3.08,6.42,6.2,8.07l3.22,1.36c2.39.64,4.79.64,7.18,0,1.78-.75,3.63-1.21,5.55-1.5l-3.59.48c3.21-.42,6.7-.65,9.92-.26l-3.59-.48c.73.11,1.42.27,2.1.55l-3.22-1.36c.35.17.67.35.98.58l-2.73-2.11c.21.19.38.37.56.59l-2.11-2.73c.11.15.2.31.27.48l-1.36-3.22c.11.31.17.56.22.89l-.48-3.59c.01.22,0,.45-.04.67l.48-3.59c-.04.22-.11.43-.2.64l1.36-3.22c-.16.32-.32.59-.54.87l2.11-2.73c-.24.27-.48.5-.76.72l2.73-2.11c-.3.2-.58.36-.91.52l3.22-1.36c-.56.2-1.1.33-1.69.42l3.59-.48c-2.15.2-4.35-.11-6.5-.26-2.27-.16-4.55-.32-6.82-.48,1.2,8.84,2.39,17.68,3.59,26.52l.45-.09-3.59.48c.78-.09,1.52-.05,2.29.04l-3.59-.48c2.62.38,5.3,1.11,7.95.87,3.11-.29,5.34-.72,8.09-2.18,2.52-1.33,4.34-3.29,5.93-5.61.9-1.33,1.58-2.99,1.99-4.53.66-2.5.76-5.66.02-8.16-1.6-5.39-5.57-9.32-10.95-10.94-1.75-.53-3.74-.54-5.58-.75-.89-.1-1.77-.19-2.66-.27-1.94-.18-3.88-.31-5.82-.41-3.73-.19-7.46-.22-11.19-.11-3.37.09-7.21,1.4-9.55,3.95-2.05,2.23-3.31,4.74-3.71,7.75s-.02,6.09,1.6,8.61c1.8,2.8,4.66,5.6,8.07,6.2,5.62,1,11.33,1.68,17.05,1.74-1.2-8.84-2.39-17.68-3.59-26.52l-7.69,1.64c-3.2.68-6.45,3.44-8.07,6.2-1.69,2.89-2.41,7.16-1.36,10.4s3.08,6.42,6.2,8.07c3.32,1.75,6.71,2.15,10.4,1.36h0Z"/>
    <path class="cls-1" d="m228.97,129.49v.57c-.07,1.86.32,3.59,1.16,5.2.54,1.67,1.47,3.12,2.79,4.34,1.22,1.32,2.67,2.25,4.34,2.79,1.61.85,3.34,1.23,5.2,1.16l3.59-.48c2.29-.64,4.27-1.8,5.96-3.47l2.11-2.73c1.22-2.11,1.84-4.38,1.84-6.81v-.57c.07-1.86-.32-3.59-1.16-5.2-.54-1.67-1.47-3.12-2.79-4.34-1.22-1.32-2.67-2.25-4.34-2.79-1.61-.85-3.34-1.23-5.2-1.16l-3.59.48c-2.29.64-4.27,1.8-5.96,3.47l-2.11,2.73c-1.22,2.11-1.84,4.38-1.84,6.81h0Z"/>
    <path class="cls-1" d="m241.89,138.39c3.46,0,7.1-1.51,9.55-3.95s4.1-6.18,3.95-9.55-1.3-7.11-3.95-9.55-5.89-3.95-9.55-3.95c-3.46,0-7.1,1.51-9.55,3.95s-4.1,6.18-3.95,9.55,1.3,7.11,3.95,9.55,5.89,3.95,9.55,3.95h0Z"/>
    <path class="cls-1" d="m243.04,152.76c3.46,0,7.1-1.51,9.55-3.95s4.1-6.18,3.95-9.55-1.3-7.11-3.95-9.55-5.89-3.95-9.55-3.95c-3.46,0-7.1,1.51-9.55,3.95s-4.1,6.18-3.95,9.55,1.3,7.11,3.95,9.55,5.89,3.95,9.55,3.95h0Z"/>
    <path class="cls-1" d="m244.77,148.73c3.46,0,7.1-1.51,9.55-3.95s4.1-6.18,3.95-9.55-1.3-7.11-3.95-9.55-5.89-3.95-9.55-3.95c-3.46,0-7.1,1.51-9.55,3.95s-4.1,6.18-3.95,9.55,1.3,7.11,3.95,9.55,5.89,3.95,9.55,3.95h0Z"/>
    <path class="cls-1" d="m245.91,145.29c3.46,0,7.1-1.51,9.55-3.95s4.1-6.18,3.95-9.55-1.3-7.11-3.95-9.55-5.89-3.95-9.55-3.95c-3.46,0-7.1,1.51-9.55,3.95s-4.1,6.18-3.95,9.55,1.3,7.11,3.95,9.55,5.89,3.95,9.55,3.95h0Z"/>
    <path class="cls-1" d="m245.91,141.84c3.46,0,7.1-1.51,9.55-3.95s4.1-6.18,3.95-9.55-1.3-7.11-3.95-9.55-5.89-3.95-9.55-3.95c-3.46,0-7.1,1.51-9.55,3.95s-4.1,6.18-3.95,9.55,1.3,7.11,3.95,9.55,5.89,3.95,9.55,3.95h0Z"/>
    <path class="cls-1" d="m245.91,140.69c3.46,0,7.1-1.51,9.55-3.95s4.1-6.18,3.95-9.55-1.3-7.11-3.95-9.55-5.89-3.95-9.55-3.95c-3.46,0-7.1,1.51-9.55,3.95s-4.1,6.18-3.95,9.55,1.3,7.11,3.95,9.55,5.89,3.95,9.55,3.95h0Z"/>
    <path class="cls-1" d="m244.77,137.82c3.46,0,7.1-1.51,9.55-3.95s4.1-6.18,3.95-9.55-1.3-7.11-3.95-9.55-5.89-3.95-9.55-3.95c-3.46,0-7.1,1.51-9.55,3.95s-4.1,6.18-3.95,9.55,1.3,7.11,3.95,9.55,5.89,3.95,9.55,3.95h0Z"/>
    <path class="cls-1" d="m245.91,137.24c3.46,0,7.1-1.51,9.55-3.95s4.1-6.18,3.95-9.55-1.3-7.11-3.95-9.55-5.89-3.95-9.55-3.95c-3.46,0-7.1,1.51-9.55,3.95s-4.1,6.18-3.95,9.55,1.3,7.11,3.95,9.55,5.89,3.95,9.55,3.95h0Z"/>
    <path class="cls-1" d="m245.91,136.1c3.46,0,7.1-1.51,9.55-3.95s4.1-6.18,3.95-9.55-1.3-7.11-3.95-9.55-5.89-3.95-9.55-3.95c-3.46,0-7.1,1.51-9.55,3.95s-4.1,6.18-3.95,9.55,1.3,7.11,3.95,9.55,5.89,3.95,9.55,3.95h0Z"/>
    <path class="cls-1" d="m182.72,340.03c3.46,0,7.1-1.51,9.55-3.95s4.1-6.18,3.95-9.55-1.3-7.11-3.95-9.55-5.89-3.95-9.55-3.95c-3.46,0-7.1,1.51-9.55,3.95s-4.1,6.18-3.95,9.55,1.3,7.11,3.95,9.55,5.89,3.95,9.55,3.95h0Z"/>
    <path class="cls-1" d="m169.22,328.83l.11,2.05h27c-.5-8.34-1.01-16.67-1.51-25.01-.22-3.59-1.36-6.95-3.95-9.55-2.34-2.34-6.18-4.1-9.55-3.95s-7.11,1.3-9.55,3.95-4.17,5.97-3.95,9.55c.5,8.34,1.01,16.67,1.51,25.01.22,3.59,1.36,6.95,3.95,9.55,2.34,2.34,6.18,4.1,9.55,3.95s7.11-1.3,9.55-3.95,4.15-5.97,3.95-9.55l-.11-2.05c-.2-3.58-1.37-6.96-3.95-9.55-2.34-2.34-6.18-4.1-9.55-3.95s-7.11,1.3-9.55,3.95-4.15,5.97-3.95,9.55h0Z"/>
    <path class="cls-1" d="m170.8,319.48c-.52,2.66-.9,5.37-1.05,8.08-.09,1.57-.05,3.14.08,4.71-.07,1.86.32,3.59,1.16,5.2.54,1.67,1.47,3.12,2.79,4.34,1.22,1.32,2.67,2.25,4.34,2.79,1.61.85,3.34,1.23,5.2,1.16l3.59-.48c2.29-.64,4.27-1.8,5.96-3.47l2.11-2.73c1.22-2.11,1.84-4.38,1.84-6.81-.21-2.42-.16-4.86.16-7.27l-.48,3.59c.09-.65.2-1.29.32-1.93.56-1.79.64-3.59.24-5.38-.08-1.8-.62-3.47-1.6-5.02-.85-1.57-2.01-2.84-3.48-3.79-1.3-1.19-2.83-2-4.59-2.42l-3.59-.48c-2.44,0-4.71.62-6.81,1.84l-2.73,2.11c-1.67,1.68-2.83,3.67-3.47,5.96h0Z"/>
    <path class="cls-1" d="m177.16,330.7c.26.65.44,1.32.54,2.01l-.48-3.59c.1.76.1,1.53.01,2.3l.48-3.59c-.09.69-.27,1.36-.52,2.01-.56,1.79-.64,3.59-.24,5.38.08,1.8.62,3.47,1.6,5.02.85,1.57,2.01,2.84,3.48,3.79,1.3,1.19,2.83,2,4.59,2.42l3.59.48c2.44,0,4.71-.62,6.81-1.84l2.73-2.11c1.67-1.68,2.83-3.67,3.47-5.96.2-.51.35-1.04.45-1.58.26-1.44.45-2.89.59-4.35.02-.27.04-.55.04-.82s-.02-.55-.04-.82c-.14-1.44-.32-2.87-.58-4.29-.1-.56-.26-1.1-.48-1.63-.42-1.76-1.22-3.29-2.42-4.59-.95-1.47-2.21-2.63-3.79-3.48-1.55-.99-3.22-1.52-5.02-1.6-1.79-.4-3.59-.32-5.38.24l-3.22,1.36c-2.03,1.2-3.64,2.81-4.84,4.84l-1.36,3.22c-.64,2.39-.64,4.79,0,7.18h0Z"/>
  </g>
  <g id="Layer_3" data-name="Layer 3">
    <path class="cls-2" d="m82.64,82.02c3.68-1.89,7.42-3.63,11.22-5.24l-3.22,1.36c18.26-7.68,37.66-12.11,57.24-14.76l-3.59.48c13.27-1.77,26.64-2.76,40.01-3.39s27.71-1.2,41.55-1.05c8.19.09,16.38.52,24.5,1.58l-3.59-.48c10.07,1.36,19.97,3.75,29.36,7.67l-3.22-1.36c6.71,2.85,13.08,6.43,18.86,10.88l-2.73-2.11c4.38,3.42,8.35,7.31,11.78,11.69l-2.11-2.73c3.97,5.14,7.12,10.81,9.66,16.77l-1.36-3.22c6.84,16.23,9.74,34.15,12.08,51.5l-.48-3.59c4.69,35.31,4.51,71.02,3.33,106.55-.32,9.73-.38,19.56-1.63,29.22l.48-3.59c-.75,5.54-2,11-4.17,16.17l1.36-3.22c-1.72,3.99-3.94,7.71-6.57,11.16l2.11-2.73c-3.3,4.26-7.16,8.01-11.41,11.3l2.73-2.11c-5.28,4.03-11.07,7.3-17.17,9.89l3.22-1.36c-8.72,3.64-17.97,5.77-27.32,7.06l3.59-.48c-18.14,2.43-36.6,2-54.85,2.22-18.95.24-37.9.6-56.85.69-10.35.05-20.73-.18-31-1.54l3.59.48c-8.97-1.22-17.77-3.34-26.13-6.86l3.22,1.36c-5.83-2.49-11.36-5.61-16.39-9.49l2.73,2.11c-3.87-3.03-7.37-6.47-10.39-10.34l2.11,2.73c-3.17-4.15-5.71-8.69-7.75-13.49l1.36,3.22c-6.17-14.79-7.84-31.15-9.95-46.9l.48,3.59c-3.99-29.74-6.73-59.8-5.29-89.83.4-8.32,1.14-16.63,2.24-24.89l-.48,3.59c1.92-14.1,4.51-28.56,10.01-41.75l-1.36,3.22c2.19-5.19,4.87-10.17,8.31-14.65l-2.11,2.73c2.18-2.79,4.63-5.34,7.43-7.51l-2.73,2.11c2.16-1.64,4.49-3.01,6.98-4.08l-3.22,1.36c1.71-.71,3.47-1.26,5.28-1.66,3.21-.72,6.44-3.42,8.07-6.2s2.41-7.16,1.36-10.4c-2.34-7.24-9.21-11.08-16.61-9.43-15.85,3.53-27.78,16.46-34.53,30.66-7.24,15.21-10.64,31.81-12.91,48.42-2.58,18.89-3.51,37.85-2.93,56.91.55,18.12,2.27,36.19,4.55,54.17,1.22,9.65,2.5,19.3,4.02,28.9,1.24,7.86,2.75,15.73,5.29,23.29,1.62,4.81,3.58,9.58,5.95,14.07s5.13,8.21,8.21,11.99c5.24,6.44,12.02,11.8,19.12,16.04,15.92,9.5,34.27,13.26,52.56,14.52,9.03.62,18.09.58,27.14.48,9.49-.11,18.98-.24,28.48-.36,18.35-.23,36.73-.18,55.07-.8,10.01-.34,19.98-1.19,29.86-2.84,9.1-1.52,17.74-4.15,26.21-7.76,14.79-6.31,28.15-16.87,36.62-30.66,10.11-16.47,10.24-36.05,10.9-54.75,1.29-36.67,1.68-73.53-3.12-109.98-2.36-17.93-5.02-36.42-11.69-53.34-1.82-4.63-3.8-9.23-6.22-13.58s-5.5-8.58-8.73-12.54c-5.28-6.48-11.93-11.92-18.92-16.45s-14.95-8.09-22.92-10.84c-8.89-3.07-18.08-4.7-27.39-5.89-17.82-2.28-35.88-1.56-53.78-.93-16.76.58-33.54,1.5-50.18,3.66-17.59,2.28-35.04,5.53-51.82,11.39-8.55,2.98-16.94,6.53-24.99,10.67-2.92,1.5-5.35,4.98-6.2,8.07s-.49,7.53,1.36,10.4,4.63,5.42,8.07,6.2c3.65.83,7.05.36,10.4-1.36h0Z"/>
  </g>
</svg>