<?xml version="1.0" encoding="utf-8"?>
<!-- Generator: Adobe Illustrator 27.1.1, SVG Export Plug-In . SVG Version: 6.00 Build 0)  -->
<svg version="1.1"
	 id="Layer_1" shape-rendering="geometricPrecision" text-rendering="geometricPrecision" image-rendering="optimizeQuality"
	 xmlns="http://www.w3.org/2000/svg" xmlns:xlink="http://www.w3.org/1999/xlink" x="0px" y="0px" viewBox="0 0 49.3 54.2"
	 style="enable-background:new 0 0 49.3 54.2;" xml:space="preserve">
<style type="text/css">
	.st0{fill-rule:evenodd;clip-rule:evenodd;fill:#C799C9;}
</style>
<path class="st0" d="M27.1,24.7c2.8,0,5.1,2.3,5.1,5.2s-2.3,5.2-5.1,5.2S22,32.8,22,29.9S24.3,24.7,27.1,24.7z M23.3,20.5H31
	c2.9,0,5.3,2.4,5.3,5.3v7.9c0,3-2.4,5.3-5.3,5.3h-7.7c-2.9,0-5.3-2.4-5.3-5.3v-7.9C18,22.9,20.5,20.5,23.3,20.5z M32.1,24
	c0.5,0,0.8,0.4,0.8,0.8s-0.4,0.8-0.8,0.8c-0.5,0-0.8-0.4-0.8-0.8S31.6,24,32.1,24z M23.9,22h6.4c2.5,0,4.4,2,4.4,4.5v6.6
	c0,2.5-2,4.5-4.4,4.5h-6.4c-2.5,0-4.4-2-4.4-4.5v-6.6C19.6,24,21.5,22,23.9,22z M27.2,12.9c4.5,0,8.7,1.9,11.7,4.9
	c3,3,4.8,7.3,4.8,11.9s-1.8,8.9-4.8,11.9s-7.1,4.9-11.7,4.9c-4.5,0-8.7-1.9-11.7-4.9c-3-3-4.8-7.3-4.8-11.9s1.8-8.9,4.8-11.9
	S22.6,12.9,27.2,12.9z M38,18.6c-2.8-2.9-6.6-4.6-10.8-4.6s-8.1,1.8-10.8,4.6c-2.8,2.9-4.4,6.7-4.4,11s1.7,8.2,4.4,11
	c2.8,2.9,6.6,4.6,10.8,4.6s8.1-1.8,10.8-4.6c2.8-2.9,4.4-6.7,4.4-11S40.8,21.5,38,18.6z M27.1,26.5c1.9,0,3.4,1.5,3.4,3.5
	s-1.5,3.5-3.4,3.5c-1.9,0-3.4-1.5-3.4-3.5S25.3,26.5,27.1,26.5z"/>
</svg>
