<?xml version="1.0" encoding="UTF-8"?>
<svg id="Layer_1" data-name="Layer 1" xmlns="http://www.w3.org/2000/svg" viewBox="0 0 34.53 35.11">
  <defs>
    <style>
      .cls-1 {
        fill: #efaaff;
      }

      .cls-2 {
        fill: #7b4887;
      }
    </style>
  </defs>
  <g id="Layer_2" data-name="Layer 2">
    <path class="cls-1" d="m8.97,8.7c-.56.98-1.1,1.97-1.62,2.97-.1.2-.18.42-.18.64,0,.28.11.55.29.77.14.18.31.3.53.39.26.1.59.16.86.06.76-.26,1.47-.61,2.16-1.02.6-.35,1.17-.73,1.78-1.06.34-.19.7-.37,1.06-.51l-.32.13c.2-.08.41-.17.62-.21l-.35.05s.08,0,.13,0l-.35-.05s.06,0,.08.02c-.26-.63-.53-1.25-.79-1.88-.13.19-.27.37-.41.55l.21-.26c-.86,1.07-1.89,2.03-2.62,3.2-.24.39-.43.8-.61,1.22-.12.29-.02.73.13.98s.48.52.79.59c.34.07.72.06,1.02-.13l.27-.2c.16-.16.28-.35.34-.56.02-.06.05-.12.07-.17l-.13.3c.26-.57.61-1.09,1-1.59l-.21.26c.79-.98,1.7-1.87,2.43-2.9.23-.33.22-.78.07-1.14s-.46-.62-.86-.74c-.69-.21-1.4.13-2.02.39-.35.15-.69.33-1.02.51-.66.37-1.29.79-1.95,1.17-.38.21-.77.41-1.17.58l.32-.13c-.12.05-.25.1-.38.14.5.63,1,1.25,1.5,1.88.52-1,1.06-1.99,1.62-2.97.17-.3.23-.65.13-.98-.08-.3-.32-.62-.61-.76-.31-.16-.68-.24-1.02-.13-.32.1-.63.29-.79.59h0Z"/>
    <path class="cls-1" d="m12.81,7.34c-1.5.86-2.91,1.9-4.15,3.09l1.88,1.81c.42-.52.81-1.05,1.11-1.64.3-.59.55-1.2.72-1.84.1-.4.02-.79-.24-1.11s-.61-.48-1.04-.5c-.24-.01-.46.01-.7.04s-.46.06-.68.13c-.44.13-.88.32-1.26.57-.78.51-1.4,1.18-1.89,1.96-.22.35-.4.72-.57,1.09h2.29v-.03s.12.3.12.3c-.09-.21-.15-.43-.19-.66l.05.34c-.03-.26-.03-.52,0-.78l-.05.34c.04-.3.13-.59.25-.86l-.13.3c.14-.33.33-.63.55-.91l-.21.26c.24-.29.51-.55.81-.78l-.27.2c.47-.35.99-.62,1.53-.84l-.32.13c.81-.33,1.67-.55,2.52-.76.5-.12,1-.25,1.49-.37s1-.29,1.51-.36l-.35.05c.12-.02.25-.02.37,0l-.35-.05c.09.01.17.03.24.07l-.32-.13c.06.03.12.06.18.1l-.27-.2s.08.07.12.12l-.21-.26s.06.09.08.14l-.13-.3s.03.08.03.13l1.28-1.62c-.92.03-1.86.18-2.73.49-.26.09-.51.19-.76.3s-.46.27-.68.44c-.22.17-.38.37-.52.59-.09.14-.15.3-.21.45-.03.07-.05.14-.06.21-.07.37-.09.71.02,1.08.05.17.12.34.22.48s.21.3.35.42c.27.22.57.37.94.37.33,0,.72-.14.94-.37s.41-.56.39-.9c-.01-.32-.12-.69-.39-.9-.04-.03-.08-.07-.11-.11l.21.26s-.07-.1-.09-.16l.13.3c-.02-.06-.04-.12-.05-.18l.05.34c-.01-.08-.01-.17,0-.25l-.05.34c.01-.1.04-.19.08-.28l-.13.3c.04-.08.08-.15.14-.22l-.21.26c.08-.09.17-.18.27-.25l-.27.2c.17-.12.35-.21.54-.29l-.32.13c.6-.24,1.23-.39,1.87-.48l-.35.05c.26-.03.52-.05.78-.06.43-.02.78-.18,1.04-.5.12-.12.2-.27.24-.43.06-.23.06-.45,0-.68-.03-.19-.11-.37-.22-.53-.18-.27-.36-.43-.63-.61-.34-.24-.78-.33-1.19-.35-.37-.02-.74.07-1.1.16-.27.07-.54.13-.81.2-1,.25-2.01.48-3,.77s-1.98.65-2.84,1.21c-.86.57-1.63,1.31-2.07,2.24-.14.3-.27.6-.36.91s-.13.63-.15.95.03.63.08.95.19.61.32.91c.12.19.28.34.48.46.21.12.43.17.67.17s.46-.06.67-.17c.2-.11.36-.27.48-.46.26-.59.57-1.16.98-1.67l-.21.26c.24-.29.5-.56.81-.78l-.27.2c.26-.19.54-.35.84-.47l-.32.13c.26-.1.53-.18.81-.21l-.35.05c.17-.02.35-.03.52-.02l-1.28-1.62c-.1.38-.23.76-.39,1.12l.13-.3c-.27.6-.61,1.17-1.02,1.69l.21-.26s-.05.06-.08.1c-.13.12-.22.25-.27.41-.08.15-.12.32-.11.49,0,.31.14.69.39.9s.59.39.94.37c.35-.02.68-.13.94-.37.59-.57,1.22-1.1,1.88-1.59l-.27.2c.64-.47,1.31-.91,2-1.3.29-.16.52-.45.61-.76s.05-.71-.13-.98-.46-.51-.79-.59-.71-.05-1.02.13h0Z"/>
    <path class="cls-1" d="m11.95,5.71c-.66.09-1.31.19-1.95.35-.72.19-1.43.46-2.07.84s-1.21.83-1.75,1.3-1.03.98-1.44,1.56c-.8,1.12-1.08,2.54-1.03,3.88s.37,2.61.67,3.89c.36,1.51.71,3.03,1.07,4.54.09.38.41.68.77.83.16.08.33.12.51.11.24,0,.46-.06.67-.17.14-.1.29-.2.42-.32s.24-.27.34-.41c.15-.21.25-.45.34-.68.13-.31.19-.64.26-.97.17-.76.31-1.52.43-2.28.25-1.62.4-3.27.21-4.91-.11-.96-.3-1.91-.64-2.83-.1-.27-.24-.49-.48-.66-.22-.17-.51-.29-.8-.27-.24.01-.46.07-.67.17-.3.15-.52.46-.61.76-.52,1.64-.5,3.39-.33,5.09.05.46.1.91.16,1.36l2.61-.34c-.35-1.4-.76-2.78-1.21-4.15l-2.56.68c.61,1.49,1.13,3.01,1.56,4.56.12.44.23.89.34,1.34l.13.3.21.26c.21.2.48.31.76.35.24.03.46,0,.69-.09.28-.11.46-.28.64-.52,1.01-1.37,1.78-2.91,2.29-4.51.14-.43.25-.88.35-1.32l-2.56-.68c-.13.63-.33,1.24-.59,1.84l.13-.3c-.22.49-.47.96-.77,1.41l2.43.3c-.26-.99-.52-1.97-.79-2.96s-.53-1.93-.76-2.9c-.13-.54-.24-1.09-.32-1.64l.05.34c-.07-.48-.11-.97-.11-1.45,0-.28-.11-.55-.29-.77-.17-.21-.41-.4-.69-.46-.23-.05-.47-.05-.71,0-.34.08-.6.32-.79.59-.61.84-1.04,1.82-1.31,2.82-.29,1.06-.41,2.16-.43,3.25-.02,1.06.04,2.12.11,3.18.07,1.08.13,2.17.2,3.25.07,1.22.15,2.43.22,3.65h2.66c-.21-2.23-.62-4.43-1.08-6.63-.12-.59-.25-1.18-.38-1.78-.06-.29-.34-.63-.61-.76s-.55-.19-.85-.15c-.28.04-.57.15-.76.35-.23.25-.4.56-.39.9.06,1.75.17,3.49.34,5.23.08.87.18,1.74.29,2.61.11.87.2,1.78.53,2.6.17.43.37.85.66,1.23.28.36.57.68.93.96.22.17.44.33.68.47s.5.24.76.34c.29.11.58.17.9.2.41.04.8-.07,1.16-.24.49-.23.87-.69,1.14-1.14.23-.4.42-.83.56-1.27s.21-.91.24-1.37-.02-.93-.09-1.39c-.13-.85-.53-1.64-.98-2.37s-.87-1.39-1.23-2.13c-.09-.19-.18-.37-.26-.56l.13.3c-.11-.24-.21-.49-.3-.74-.12-.3-.3-.61-.61-.76-.27-.14-.55-.19-.85-.15-.28.04-.57.15-.76.35l-.21.26c-.12.2-.18.41-.18.64-.21,2.43-.2,4.88.03,7.31.07.78.17,1.55.29,2.33.06.22.18.4.34.56.17.16.36.27.59.33.44.12.98,0,1.29-.33.4-.43.66-.88.87-1.42.13-.34.21-.7.26-1.06.14-.95.18-1.89.09-2.85-.05-.59-.14-1.18-.27-1.76l-.13-.3c-.08-.15-.2-.27-.34-.36-.22-.17-.51-.29-.8-.27-.24.01-.46.07-.67.17-.15.08-.28.19-.37.33-.12.12-.2.27-.24.43-.23.53-.39,1.08-.49,1.65-.11.67-.18,1.33-.13,2.01.02.34.13.66.39.9.23.22.61.39.94.37s.7-.12.94-.37.41-.57.39-.9c-.03-.49-.01-.99.05-1.48l-.05.34c.09-.63.26-1.25.52-1.84h-2.56c.06.28.11.57.15.85l-.05-.34c.14,1.02.16,2.05.02,3.07l.05-.34c-.06.41-.15.81-.31,1.19l.13-.3c-.09.21-.21.41-.35.59l.21-.26c-.04.05-.08.1-.13.15l2.22.56c0-.06-.02-.12-.03-.18l.05.34c-.33-2.36-.45-4.74-.36-7.11.02-.67.07-1.33.12-2-.87.11-1.74.23-2.61.34.33.88.73,1.75,1.2,2.57.41.72.92,1.39,1.26,2.15l-.13-.3c.16.37.27.76.33,1.16l-.05-.34c.06.43.06.86,0,1.28l.05-.34c-.06.42-.18.84-.35,1.24l.13-.3c-.12.27-.26.53-.44.76l.21-.26c-.08.1-.16.18-.26.26l.27-.2c-.07.05-.14.09-.22.12l.32-.13c-.06.02-.13.04-.19.05l.35-.05c-.09.01-.18.01-.27,0l.35.05c-.2-.03-.39-.09-.58-.16l.32.13c-.29-.12-.57-.28-.82-.46l.27.2c-.26-.2-.5-.42-.7-.67l.21.26c-.2-.26-.37-.54-.5-.83l.13.3c-.25-.58-.37-1.2-.46-1.82l.05.34c-.3-2.16-.49-4.35-.61-6.52-.03-.62-.06-1.25-.08-1.87l-2.61.34c.35,1.64.7,3.28.98,4.93.08.47.15.95.22,1.42l-.05-.34c.08.57.15,1.14.2,1.71,0,.18.03.34.11.49.05.16.14.3.27.41.23.22.61.39.94.37s.7-.12.94-.37.41-.56.39-.9c-.09-1.54-.19-3.08-.28-4.61-.09-1.53-.22-3.06-.25-4.59-.02-.84.01-1.68.13-2.51l-.05.34c.12-.84.33-1.66.67-2.44l-.13.3c.21-.47.46-.93.77-1.35l-2.48-.64c0,1.29.26,2.57.57,3.81.29,1.16.61,2.32.92,3.48.18.67.36,1.33.53,2,.05.2.19.42.34.56.21.2.48.31.76.35.24.03.46,0,.69-.09.27-.11.47-.28.64-.52.39-.58.69-1.2.96-1.85.23-.55.41-1.12.53-1.7.07-.34.05-.68-.13-.98-.16-.26-.48-.52-.79-.59-.34-.07-.72-.06-1.02.13-.28.17-.54.44-.61.76-.2.93-.5,1.84-.88,2.72l.13-.3c-.43.99-.98,1.93-1.63,2.81.81.1,1.62.2,2.43.3-.37-1.56-.83-3.1-1.39-4.61-.16-.43-.33-.86-.5-1.29-.04-.17-.12-.31-.24-.43-.09-.14-.22-.25-.37-.33-.28-.16-.7-.23-1.02-.13s-.63.29-.79.59c-.16.3-.24.65-.13.98.45,1.37.85,2.76,1.21,4.15.07.29.33.62.61.76s.55.19.85.15c.28-.04.57-.15.76-.35.22-.23.43-.58.39-.9-.2-1.58-.4-3.19-.18-4.79l-.05.34c.06-.45.16-.89.3-1.32h-2.56c.27.72.45,1.47.56,2.23l-.05-.34c.21,1.49.13,3.01-.08,4.5l.05-.34c-.09.64-.2,1.27-.33,1.91-.06.31-.13.62-.2.93-.06.26-.12.52-.23.77l.13-.3c-.06.14-.13.27-.23.39l.21-.26c-.07.08-.14.15-.22.22l.27-.2-.03.02c.65.25,1.3.51,1.95.76-.45-1.89-.92-3.78-1.34-5.68-.11-.48-.2-.96-.27-1.45l.05.34c-.1-.71-.14-1.44-.04-2.15l-.05.34c.06-.44.18-.87.35-1.28l-.13.3c.16-.36.37-.69.62-1.01l-.21.26c.52-.64,1.16-1.2,1.82-1.69l-.27.2c.47-.35.98-.66,1.53-.88l-.32.13c.92-.37,1.91-.52,2.89-.66.31-.04.64-.34.79-.59.17-.27.24-.68.13-.98s-.3-.61-.61-.76l-.32-.13c-.24-.06-.47-.06-.71,0h0Z"/>
    <path class="cls-1" d="m9.57,26.36c2,.48,4.08.68,6.14.58.66-.03,1.31-.11,1.96-.19.17-.04.32-.12.45-.23.14-.09.26-.21.34-.36.14-.26.2-.52.16-.81-.04-.27-.15-.54-.37-.73l-.27-.2c-.21-.12-.43-.17-.67-.17-.09-.01-.17-.02-.26-.03l.35.05c-1.16-.15-2.33-.33-3.42-.77l.32.13c-.28-.12-.55-.25-.82-.4-.34-.19-.68-.35-1.05-.5-.39-.15-.81-.2-1.23-.25-.5-.06-.99-.07-1.45.18s-.77.74-.85,1.24c-.06.4-.11.81-.14,1.21-.06.63-.1,1.27-.11,1.9-.02.72,0,1.44.03,2.16.67-.37,1.33-.74,2-1.1-.51-.29-1.01-.61-1.48-.95l.27.2c-.77-.57-1.48-1.22-2.11-1.94-.3-.34-.86-.44-1.29-.33-.23.06-.42.17-.59.33-.16.16-.28.35-.34.56-.13.31-.19.68-.16,1.02.04.48.15.85.37,1.28.31.63.86,1.14,1.45,1.53.28.18.58.32.89.44s.63.24.97.32c.68.16,1.39.23,2.09.27.61.03,1.22.03,1.82.04.71.01,1.42.06,2.12-.11.48-.12.89-.34,1.25-.65.34-.28.55-.66.71-1.06s.17-.87.06-1.28c-.14-.52-.49-.92-.95-1.22-.65-.42-1.5-.45-2.26-.37-.86.1-1.7.26-2.51.54-.4.14-.69.36-.86.74-.08.15-.12.32-.11.49,0,.23.06.45.18.64.23.3.49.58.85.73.27.12.53.21.82.28.48.11.96.21,1.44.3.97.19,1.94.37,2.92.52.32.05.65.13.98.12.2,0,.42-.03.61-.09.13-.05.28-.1.4-.17s.26-.17.36-.28c.15-.16.28-.35.34-.56.08-.28.05-.57-.07-.83-.09-.21-.22-.37-.41-.51-.22-.16-.52-.29-.8-.27-1.26.09-2.45.41-3.57.97-.37.19-.58.55-.63.93s.05.82.37,1.07c.26.21.48.36.79.48s.57.17.92.21c.43.05.86-.01,1.28-.08.33-.05.65-.14.97-.21.41-.1.83-.17,1.24-.22l-.35.05c2.36-.3,4.83-.11,7.11-.89,1.13-.39,2.21-.97,3.02-1.84s1.34-1.9,1.62-3.01c.3-1.17.37-2.39.32-3.59h-2.66c.06.78.13,1.56.2,2.34.03.39.06.78.1,1.17.03.37.08.74.03,1.11l.05-.34c-.03.16-.07.32-.14.47l.13-.3c-.1.22-.23.42-.38.61l.21-.26c-.4.49-.88.92-1.39,1.31l.27-.2c-.5.37-1.04.7-1.61.94l.32-.13c-.28.11-.57.2-.87.24l.35-.05c-.2.02-.41.03-.61,0l.35.05c-.18-.02-.34-.07-.51-.13l.32.13c-.15-.06-.29-.14-.42-.23l.27.2c-.11-.08-.21-.17-.29-.28l.21.26c-.07-.09-.13-.18-.17-.28l.13.3c-.02-.05-.04-.1-.06-.16-.1-.31-.31-.6-.61-.76s-.7-.23-1.02-.13-.63.29-.79.59-.24.65-.13.98c.08.26.2.52.37.74.11.14.22.29.36.42s.3.24.45.35c.47.33,1.06.46,1.63.51.33.03.66-.02.98-.07.22-.04.44-.1.65-.17.52-.19,1.02-.43,1.48-.72.82-.51,1.61-1.14,2.22-1.88.39-.47.77-1,.88-1.61.06-.32.09-.64.07-.97-.01-.24-.04-.49-.06-.73-.09-1.11-.19-2.21-.28-3.32-.03-.34-.13-.65-.39-.9-.23-.22-.61-.39-.94-.37s-.7.12-.94.37-.4.56-.39.9c.03.77.01,1.54-.09,2.31l.05-.34c-.1.67-.26,1.32-.53,1.95l.13-.3c-.19.42-.42.82-.71,1.18l.21-.26c-.27.33-.57.62-.92.88l.27-.2c-.42.31-.87.55-1.35.75l.32-.13c-.82.33-1.68.52-2.56.63l.35-.05c-1.98.26-4,.16-5.96.58-.45.1-.9.22-1.35.28l.35-.05c-.26.03-.52.05-.77.01l.35.05c-.14-.02-.27-.05-.41-.11l.32.13c-.11-.05-.21-.1-.31-.17l.27.2s-.04-.03-.06-.05c-.09.67-.18,1.34-.27,2.01.19-.1.39-.19.6-.27l-.32.13c.58-.23,1.2-.39,1.82-.48l-.35.05c.16-.02.32-.04.48-.05-.31-.73-.63-1.45-.94-2.18-.02.02-.04.04-.07.07l.27-.2s-.07.04-.11.06l.32-.13c-.05.02-.1.03-.16.04l.35-.05c-.13.01-.25,0-.38-.01l.35.05c-.89-.12-1.77-.29-2.65-.46-.44-.08-.88-.17-1.32-.27-.39-.08-.81-.14-1.18-.28l.32.13c-.1-.04-.19-.09-.27-.15l.27.2s-.09-.07-.12-.12l.21.26-.02-.03c-.26.63-.53,1.25-.79,1.88.67-.23,1.36-.4,2.07-.49l-.35.05c.35-.04.7-.08,1.05-.04l-.35-.05c.14.02.28.05.42.1l-.32-.13c.09.04.17.08.25.14l-.27-.2c.06.05.11.09.16.15l-.21-.26c.04.05.07.1.1.16l-.13-.3c.03.07.05.13.06.2l-.05-.34c.01.08,0,.16,0,.24l.05-.34c-.01.09-.04.18-.08.27l.13-.3c-.05.11-.11.21-.19.3l.21-.26c-.08.09-.17.18-.26.25l.27-.2c-.1.07-.2.12-.31.17l.32-.13c-.18.07-.37.11-.56.14l.35-.05c-.36.05-.72.03-1.08.02s-.71-.01-1.06-.02c-.71,0-1.42-.02-2.13-.11l.35.05c-.54-.07-1.07-.19-1.57-.39l.32.13c-.3-.12-.59-.27-.85-.46l.27.2c-.22-.16-.41-.34-.57-.55l.21.26c-.13-.17-.24-.34-.33-.54l.13.3c-.07-.16-.11-.31-.14-.48l.05.34c-.02-.13-.02-.26,0-.39l-.05.34c.02-.12.05-.24.1-.35l-2.22.56c1.08,1.23,2.41,2.28,3.86,3.09.41.23.93.23,1.34,0,.39-.22.68-.66.66-1.1-.08-1.63-.03-3.28.18-4.9l-.05.34c.02-.11.04-.21.08-.32l-.13.3s.04-.07.06-.11l-.21.26s.04-.04.06-.06l-.27.2s.05-.03.08-.05l-.32.13s.08-.02.12-.03l-.35.05c.23-.02.48.02.71.05l-.35-.05c.28.04.56.1.82.2l-.32-.13c.43.18.82.43,1.24.63.5.23,1.03.43,1.57.57,1,.27,2.03.39,3.06.52-.12-.84-.24-1.67-.35-2.51h-.05s.35-.04.35-.04c-1.73.22-3.5.22-5.23,0l.35.05c-.71-.09-1.42-.22-2.11-.39-.34-.08-.72-.04-1.02.13-.28.16-.54.46-.61.76-.08.33-.06.69.13.98s.45.51.79.59h0Z"/>
    <path class="cls-1" d="m28.31,21.36c-.49.57-1.05,1.08-1.66,1.53l.27-.2c-1.83,1.36-3.99,2.18-6.06,3.14-.61.28-1.22.58-1.81.9-.29.16-.52.46-.61.76s-.05.71.13.98.46.51.79.59l.35.05c.24,0,.46-.06.67-.17,1.79-.81,3.57-1.62,5.36-2.43.5-.23,1-.46,1.51-.68l-1.82-1.75c-.21.4-.45.77-.74,1.13l.21-.26c-.37.46-.8.87-1.28,1.23l.27-.2c-.38.28-.78.52-1.21.73l1.61,2.01c.37-.4.8-.74,1.24-1.07l-.27.2c.81-.6,1.68-1.15,2.39-1.87.37-.37.7-.79.96-1.24.15-.26.28-.55.39-.83.07-.19.13-.39.17-.6.11-.65.13-1.32-.12-1.95-.12-.3-.3-.6-.61-.76s-.69-.24-1.02-.13c-1.65.54-3.12,1.47-4.63,2.3-1.49.81-2.99,1.59-4.51,2.34-.85.42-1.71.84-2.58,1.24l1.95.76c-.05-.11-.07-.22-.09-.34l.05.34c-.01-.13-.01-.25,0-.38l-.05.34c.02-.15.07-.3.13-.44l-.13.3c.07-.17.17-.32.28-.47l-.21.26c.13-.17.29-.31.47-.44l-.27.2c.33-.24.7-.42,1.07-.57l-.32.13c.43-.17.86-.32,1.28-.49.55-.22,1.1-.44,1.64-.68.8-.35,1.6-.72,2.35-1.17.84-.51,1.6-1.13,2.14-1.94.28-.42.48-.91.6-1.4.11-.46.17-.93.24-1.4.16-1.1.33-2.2.49-3.3.06-.17.06-.34.02-.51,0-.17-.06-.33-.16-.47-.16-.26-.48-.52-.79-.59-.34-.07-.72-.06-1.02.13-.27.17-.56.44-.61.76-.14.91-.27,1.82-.41,2.74-.07.44-.13.89-.2,1.33-.07.43-.16.85-.33,1.25l.13-.3c-.12.26-.27.51-.45.73l.21-.26c-.25.31-.55.58-.88.82l.27-.2c-.54.4-1.13.71-1.73,1-.74.36-1.49.7-2.25,1.01l.32-.13c-.82.33-1.68.59-2.46,1-.9.47-1.61,1.2-1.92,2.15-.03.08-.05.17-.06.26-.03.18-.06.38-.07.56s.03.39.07.58c.02.09.05.18.08.27.06.22.18.4.34.56.12.12.26.21.43.26.41.17.79.12,1.18-.06,1.45-.68,2.88-1.38,4.31-2.12,1.41-.73,2.81-1.48,4.2-2.25.75-.42,1.5-.84,2.3-1.17l-.32.13c.19-.08.39-.15.59-.22-.55-.3-1.09-.6-1.63-.89.07.17.11.34.14.52l-.05-.34c.03.21.02.43,0,.64l.05-.34c-.04.29-.13.57-.24.84l.13-.3c-.15.35-.36.67-.6.97l.21-.26c-.42.52-.94.94-1.47,1.34l.27-.2c-.86.64-1.78,1.22-2.51,2-.23.24-.4.57-.39.9.01.29.1.54.29.77.17.21.41.4.69.46l.35.05c.24,0,.46-.06.67-.17.79-.37,1.52-.89,2.14-1.49s1.16-1.3,1.56-2.05c.14-.26.2-.52.16-.81-.04-.27-.15-.54-.37-.73-.17-.15-.37-.26-.59-.33-.35-.11-.71-.01-1.02.13-1.79.81-3.57,1.62-5.36,2.43-.5.23-1,.46-1.51.68l1.34,2.21c1.35-.74,2.79-1.33,4.2-1.97,1.28-.59,2.55-1.23,3.68-2.07.7-.52,1.37-1.07,1.93-1.73.13-.12.22-.25.27-.41.08-.15.12-.32.11-.49,0-.31-.14-.69-.39-.9s-.59-.39-.94-.37c-.33.01-.72.12-.94.37h0Z"/>
    <path class="cls-1" d="m22.95,18.74c.09.89.06,1.78-.06,2.67l.05-.34c-.15,1.07-.45,2.11-.88,3.1l.13-.3c-.41.93-.94,1.81-1.58,2.61l.21-.26s-.05.06-.08.09c-.13.12-.22.25-.27.41-.08.15-.12.32-.11.49,0,.31.14.69.39.9s.59.39.94.37c.33-.01.73-.11.94-.37.45-.55.87-1.12,1.23-1.73.35-.6.65-1.23.9-1.87.49-1.21.76-2.49.87-3.78.05-.67.05-1.34-.02-2,0-.18-.03-.34-.11-.49-.05-.16-.14-.3-.27-.41-.23-.22-.61-.39-.94-.37s-.7.12-.94.37c-.23.24-.42.57-.39.9h0Z"/>
    <path class="cls-1" d="m19.06,29.47c.11-.09.23-.18.34-.27.13-.12.22-.25.27-.41.08-.15.12-.32.11-.49,0-.18-.03-.34-.11-.49-.05-.16-.14-.3-.27-.41l-.27-.2c-.21-.12-.43-.17-.67-.17l-.35.05c-.23.06-.42.17-.59.33-.11.09-.23.18-.34.27-.13.12-.22.25-.27.41-.08.15-.12.32-.11.49,0,.18.03.34.11.49.05.16.14.3.27.41l.27.2c.21.12.43.17.67.17l.35-.05c.23-.06.42-.17.59-.33h0Z"/>
    <path class="cls-1" d="m28.15,22.52c-.02-.12-.04-.24-.05-.37l.05.34c-.22-1.6-.29-3.21-.21-4.82.02-.45.06-.91.11-1.36-.83.21-1.65.43-2.48.64.13.24.25.48.36.72l-.13-.3c.72,1.65,1,3.42,1.28,5.18.04.17.12.31.24.43.09.14.22.25.37.33.27.14.55.19.85.15.28-.04.57-.15.76-.35l.21-.26c.12-.2.18-.41.18-.64.13-1.77.1-3.54-.1-5.31-.07-.6-.15-1.19-.25-1.79-.04-.17-.12-.31-.24-.43-.09-.14-.22-.25-.37-.33-.27-.14-.55-.19-.85-.15-.28.04-.57.15-.76.35-.24.25-.39.56-.39.9-.02,1.62.59,3.14,1.01,4.68.11.41.2.82.26,1.24l-.05-.34c.04.3.06.59.06.89h2.66c-.12-1.33-.23-2.67-.34-4s-.21-2.8-.42-4.19c-.1-.7-.26-1.4-.5-2.08-.15-.43-.46-.77-.93-.89-.24-.06-.47-.06-.71,0-.23.06-.42.17-.59.33-.47.57-.9,1.17-1.23,1.83s-.6,1.34-.77,2.05l2.43-.3c-.2-.35-.4-.71-.6-1.06-.08-.15-.16-.31-.27-.45-.18-.23-.32-.4-.57-.55s-.54-.23-.83-.24c-.49-.02-.9.2-1.26.49-.2.16-.36.39-.51.59-.21.27-.39.56-.54.86-.19.39-.36.8-.47,1.22-.04.17-.07.33-.1.51s-.06.35-.07.53c0,.13.02.28.05.41s.09.27.16.38c.16.27.41.47.7.59.21.08.42.14.65.12.35-.03.64-.11.91-.32.18-.13.34-.29.44-.49.14-.28.19-.48.22-.78,0-.08,0-.17,0-.25,0-.18-.02-.36-.04-.53-.06-.44-.13-.88-.28-1.3-.14-.42-.33-.84-.55-1.23-.19-.34-.41-.64-.66-.94s-.47-.56-.74-.81c-.54-.5-1.16-.94-1.82-1.27-.67-.33-1.39-.6-2.12-.75-1.64-.32-3.39-.21-4.95.38-.26.1-.52.2-.77.32.65.25,1.3.51,1.95.76-.01-.05-.02-.1-.03-.15l.05.34c-.01-.1,0-.2,0-.3l-.05.34c.02-.12.06-.24.11-.36l-.13.3c.06-.13.13-.25.22-.36l-.21.26c.14-.17.3-.31.47-.44l-.27.2c.43-.32.91-.57,1.36-.84.5-.3,1-.59,1.5-.89.26-.15.51-.34.66-.6.13-.22.22-.46.22-.71s-.06-.52-.19-.74c-.21-.33-.53-.62-.89-.78-.39-.17-.77-.28-1.21-.27s-.81.12-1.22.29c-.67.29-1.17.87-1.57,1.43-.24.33-.22.78-.07,1.14s.46.67.86.74c.61.1,1.24.17,1.86.15.52-.02,1.04-.16,1.56-.1l-.35-.05c.18.02.35.07.52.14l-.32-.13c.25.11.48.25.7.41l-.27-.2c.25.19.48.4.71.61.31.29.7.41,1.12.35.18,0,.34-.06.49-.15.2-.11.36-.27.48-.46.12-.27.28-.53.46-.76l-.21.26c.2-.24.42-.46.67-.65l-.27.2c.28-.21.59-.38.91-.52l-.32.13c.33-.13.67-.22,1.02-.27l-.35.05c.32-.04.64-.04.95,0l-.35-.05c.3.04.59.12.87.23l-.32-.13c.3.12.58.28.84.47l-.27-.2c.27.2.51.43.71.69l-.21-.26c.21.27.39.56.53.87l-.13-.3c.13.3.22.61.27.93l-.05-.34c.03.26.04.53,0,.79l.05-.34c-.02.11-.04.22-.09.33l.13-.3c-.03.07-.07.13-.12.19l.21-.26c-.05.05-.09.1-.15.14l.27-.2c-.09.06-.18.11-.27.15l.32-.13c-.16.06-.32.11-.48.15-.25.08-.51.17-.74.29-.34.17-.63.4-.98.55l.32-.13c-.19.07-.38.12-.59.15l.35-.05c-.26.03-.52.03-.78,0l.35.05c-.32-.04-.62-.13-.92-.24l.32.13c-.43-.18-.83-.43-1.2-.7l.27.2c-.23-.17-.46-.36-.68-.55s-.43-.35-.61-.57l.21.26c-.05-.07-.1-.14-.14-.22l.13.3s-.03-.09-.04-.13l.05.34s0-.09,0-.13l-.05.34s.01-.06.03-.09l-.13.3s.03-.06.05-.09l-.21.26s.04-.04.06-.06l-.27.2s.06-.04.1-.06l-.32.13s.07-.02.11-.03l-.35.05c.06,0,.12,0,.18,0l-.35-.05c.08.01.15.03.22.06l-.32-.13c.08.03.16.07.23.12l-.27-.2c.14.1.26.22.4.33.31.25.57.41.96.54.32.1.74.03,1.02-.13s.54-.46.61-.76c.08-.33.06-.69-.13-.98s-.45-.48-.79-.59c-.02,0-.05-.01-.07-.02l.32.13c-.1-.04-.19-.1-.28-.16l.27.2c-.12-.09-.22-.19-.34-.28-.13-.11-.27-.21-.41-.31-.1-.07-.22-.11-.33-.15-.57-.23-1.25-.25-1.78.09-.37.23-.64.57-.76.98-.13.45-.02.9.19,1.31.19.37.51.65.82.92.58.51,1.19,1.01,1.88,1.37.75.39,1.63.66,2.5.62.59-.03,1.12-.16,1.65-.42.34-.17.63-.4.98-.55l-.32.13c.21-.08.43-.13.64-.2.4-.14.78-.31,1.08-.61.55-.55.71-1.33.65-2.07-.04-.58-.17-1.1-.4-1.62s-.53-.97-.92-1.41c-.34-.39-.77-.72-1.22-.98s-.96-.47-1.48-.57c-.31-.06-.62-.1-.93-.11s-.63.04-.95.08c-.52.07-1,.25-1.48.46-.51.23-.99.57-1.38.95s-.76.86-.99,1.37l2.09-.26c-.36-.33-.73-.65-1.14-.92s-.86-.48-1.34-.56c-.34-.05-.66-.08-1-.05-.24.02-.48.06-.71.08-.47.03-.95.02-1.42-.04l.35.05c-.11-.01-.22-.03-.33-.05.26.63.53,1.25.79,1.88.05-.07.11-.14.16-.22l-.21.26c.15-.19.32-.37.52-.52l-.27.2c.13-.1.28-.18.43-.25l-.32.13c.12-.05.24-.08.37-.1l-.35.05c.13-.02.26-.02.38,0l-.35-.05c.1.01.2.04.3.08l-.32-.13c.08.03.16.08.24.13l-.27-.2c.06.04.11.09.15.14l-.21-.26s.03.04.04.06l-.13-.3v.03s-.03-.34-.03-.34c0,.02,0,.04,0,.07l.05-.34v.03s.12-.3.12-.3c0,.02-.02.04-.03.05l.21-.26s-.03.03-.05.04l.27-.2c-.15.11-.32.2-.48.29-.18.11-.36.21-.54.32-.35.21-.69.41-1.04.62-.31.19-.63.37-.93.58-.43.32-.83.65-1.1,1.12-.34.59-.46,1.26-.28,1.92.1.39.4.68.77.83.16.08.33.12.51.11.24,0,.46-.06.67-.17.09-.04.18-.08.28-.12l-.32.13c.64-.26,1.31-.43,2-.52l-.35.05c.64-.08,1.29-.08,1.94,0l-.35-.05c.61.08,1.21.23,1.78.46l-.32-.13c.55.23,1.07.52,1.55.87l-.27-.2c.43.33.82.7,1.16,1.11l-.21-.26c.32.4.59.83.79,1.3l-.13-.3c.19.44.33.91.4,1.39l-.05-.34c.04.26.06.54.04.8l.05-.34s-.02.09-.03.14l.13-.3s-.03.06-.06.09l.21-.26s-.03.03-.04.04l.27-.2s-.03.02-.05.03l.32-.13s-.04.01-.06.02l.35-.05s-.06,0-.09,0l.35.05s-.04,0-.05-.02l.32.13h-.02s.27.19.27.19l-.02-.02.21.26s-.03-.03-.03-.05l.13.3s-.01-.04-.01-.06l.05.34c0-.09.01-.17.02-.26l-.05.34c.06-.43.18-.85.36-1.25l-.13.3c.17-.38.38-.73.64-1.06l-.21.26c.09-.11.18-.22.3-.31l-.27.2s.08-.05.13-.08l-.32.13s.07-.02.1-.03l-.35.05s.05,0,.07,0l-.35-.05s.07.01.1.03l-.32-.13s.04.02.06.03l-.27-.2s.07.06.1.1l-.21-.26c.17.22.29.48.42.72.15.26.3.53.45.79l.21.26.27.2c.26.15.55.19.85.15.24-.03.44-.11.63-.25.22-.16.41-.4.48-.66.11-.48.27-.94.47-1.4l-.13.3c.29-.66.67-1.29,1.13-1.86l-.21.26s.03-.04.05-.06l-2.22-.56c.26.72.41,1.46.52,2.21l-.05-.34c.14.98.2,1.96.29,2.94s.17,2.03.26,3.04c.05.58.1,1.15.15,1.73.03.34.13.65.39.9.23.22.61.39.94.37s.7-.12.94-.37.39-.56.39-.9c0-1.61-.59-3.11-1-4.64-.11-.41-.2-.82-.26-1.24l.05.34c-.04-.31-.06-.62-.06-.93-.87.11-1.74.23-2.61.34.04.24.08.49.11.73l-.05-.34c.22,1.55.3,3.11.26,4.68-.01.45-.04.9-.07,1.34.87-.11,1.74-.23,2.61-.34-.24-1.58-.49-3.18-1.07-4.69-.2-.52-.43-1.03-.69-1.52l-.21-.26c-.12-.12-.26-.21-.43-.26-.26-.11-.58-.15-.86-.06-.22.07-.42.18-.59.33-.13.12-.22.25-.27.41-.08.15-.12.32-.11.49-.18,1.71-.18,3.44-.02,5.15.06.58.14,1.16.22,1.74.05.29.36.62.61.76.28.16.7.23,1.02.13s.63-.29.79-.59l.13-.3c.06-.23.06-.45,0-.68h0Z"/>
    <path class="cls-1" d="m18.26,8.35c.32-.12.64-.19.98-.24l-.35.05c.34-.04.68-.06,1.02-.08.45-.03.89-.07,1.34-.13.71-.1,1.41-.29,2.1-.47.21-.06.43-.18.59-.33.21-.2.33-.46.37-.73.03-.23,0-.44-.09-.66-.11-.25-.29-.47-.54-.61-.52-.29-1.1-.37-1.7-.39-.43-.01-.86-.02-1.29-.02-.95,0-1.93.09-2.84.39-.33.11-.62.29-.79.59-.17.27-.24.68-.13.98s.3.61.61.76.68.24,1.02.13c.39-.12.79-.21,1.19-.26l-.35.05c.51-.06,1.02-.08,1.52-.08s.99-.01,1.47.05l-.35-.05c.16.02.32.06.47.12l-.32-.13s.1.04.14.07c.11-.78.21-1.56.32-2.33-.71.19-1.41.38-2.14.48l.35-.05c-.5.07-1.01.08-1.52.11-.6.05-1.21.11-1.77.33-.17.04-.32.12-.45.23-.14.09-.26.21-.34.36-.17.27-.24.68-.13.98s.3.61.61.76.7.25,1.02.13h0Z"/>
    <path class="cls-1" d="m24.01,7.3c.34,0,.7-.14.94-.37s.4-.58.39-.9-.13-.67-.39-.9-.58-.37-.94-.37c-.34,0-.7.14-.94.37s-.4.58-.39.9c.01.32.13.67.39.9s.58.37.94.37h0Z"/>
    <path class="cls-1" d="m15.95,15.53c-.58.19-1.05.53-1.38,1.03-.13.19-.23.42-.28.64-.09.37-.08.67-.02,1.04.07.44.34.86.66,1.18s.79.58,1.25.7c.48.12,1.02.12,1.49-.02s.89-.38,1.27-.7c.11-.09.21-.2.3-.31.16-.2.33-.39.44-.62.28-.55.46-1.19.24-1.8-.18-.52-.55-.95-1.05-1.22-.33-.17-.69-.29-1.06-.35-.24-.04-.48-.07-.72-.1-.19-.02-.38-.04-.57-.02-.42.03-.71.1-1.09.27-.25.11-.47.28-.68.45-.32.26-.58.58-.81.92s-.41.74-.49,1.14c-.11.52-.12.98,0,1.5.03.13.07.25.12.37.1.23.19.47.34.67.3.4.66.77,1.13.98.24.11.49.21.74.27s.54.09.81.11c.17.01.33.01.5,0,.28-.02.58-.04.85-.14.35-.13.65-.29.91-.56.19-.2.35-.42.51-.64.24-.35.42-.73.58-1.12.13-.31.23-.64.29-.97.09-.52.17-1.07,0-1.59-.18-.55-.55-.98-1.05-1.29-.33-.2-.72-.33-1.09-.41-.46-.1-.93-.18-1.39-.2-.95-.05-2.04.24-2.69.95-.34.37-.61.82-.7,1.31s-.1,1,.05,1.5c.25.81.82,1.49,1.56,1.94.32.2.7.35,1.08.42.52.09.98.09,1.51-.02.36-.08.7-.22,1.05-.33.41-.14.82-.28,1.22-.44.86-.36,1.61-1.08,1.84-1.97.06-.22.1-.46.08-.68-.02-.39-.11-.67-.28-1.01-.21-.43-.6-.75-.99-1.01-.23-.16-.49-.27-.75-.38-.15-.09-.32-.14-.49-.15-.18-.04-.35-.03-.53.02-.31.08-.64.31-.79.59-.16.3-.24.66-.13.98.1.3.3.63.61.76.29.12.58.26.84.44l-.27-.2c.11.08.21.17.29.28l-.21-.26c.06.08.11.16.15.25l-.13-.3c.04.09.06.17.07.27l-.05-.34c.01.09,0,.18,0,.28l.05-.34c-.02.12-.05.23-.1.34l.13-.3c-.06.12-.13.23-.21.34l.21-.26c-.1.12-.22.24-.35.33l.27-.2c-.21.15-.44.27-.68.36l.32-.13c-.33.13-.67.23-1,.34-.36.12-.72.26-1.1.31l.35-.05c-.16.02-.32.02-.48,0l.35.05c-.18-.02-.36-.07-.53-.14l.32.13c-.18-.07-.35-.17-.5-.28l.27.2c-.15-.12-.29-.25-.42-.39l.21.26c-.11-.14-.21-.29-.28-.45l.13.3c-.07-.15-.11-.31-.14-.47l.05.34c-.02-.16-.02-.32,0-.49l-.05.34c.02-.15.06-.3.12-.44l-.13.3c.05-.12.12-.23.2-.33l-.21.26c.08-.1.17-.18.27-.26l-.27.2c.12-.09.26-.16.4-.22l-.32.13c.18-.07.37-.12.56-.14l-.35.05c.3-.03.59-.02.89.01l-.35-.05c.42.05.85.13,1.24.29l-.32-.13c.12.05.24.11.35.19l-.27-.2c.07.05.13.11.19.18l-.21-.26c.05.06.09.13.12.2l-.13-.3c.04.09.06.17.07.27l-.05-.34c.02.19,0,.37-.02.56l.05-.34c-.06.41-.18.82-.35,1.2l.13-.3c-.16.36-.36.7-.61,1.01l.21-.26c-.08.09-.16.18-.25.25l.27-.2c-.06.04-.11.07-.18.1l.32-.13c-.11.04-.21.07-.32.08l.35-.05c-.29.03-.59.03-.88,0l.35.05c-.21-.03-.4-.07-.6-.15l.32.13c-.13-.06-.26-.12-.38-.21l.27.2c-.11-.09-.22-.18-.31-.29l.21.26c-.1-.13-.19-.27-.25-.42l.13.3c-.07-.16-.12-.33-.14-.51l.05.34c-.02-.18-.02-.36,0-.54l-.05.34c.03-.2.09-.39.17-.58l-.13.3c.1-.22.23-.43.38-.62l-.21.26c.15-.18.31-.35.5-.49l-.27.2c.11-.08.22-.15.35-.2l-.32.13c.11-.04.22-.07.33-.09l-.35.05c.28-.03.56,0,.83.03l-.35-.05c.27.04.54.09.8.19l-.32-.13c.11.04.21.1.3.16l-.27-.2c.06.05.12.1.17.16l-.21-.26c.04.05.08.11.1.17l-.13-.3c.02.05.04.11.05.16l-.05-.34c.01.08.01.16,0,.24l.05-.34c-.02.11-.05.21-.09.32l.13-.3c-.08.17-.17.33-.29.47l.21-.26c-.12.15-.26.28-.41.4l.27-.2c-.13.09-.26.17-.4.23l.32-.13c-.13.05-.27.09-.41.11l.35-.05c-.13.02-.25.02-.38,0l.35.05c-.12-.02-.24-.05-.36-.1l.32.13c-.12-.05-.22-.11-.32-.18l.27.2c-.09-.07-.17-.14-.24-.22l.21.26c-.06-.08-.11-.16-.15-.24l.13.3c-.04-.09-.06-.18-.08-.28l.05.34c-.01-.09,0-.18,0-.26l-.05.34c.01-.09.04-.17.07-.26l-.13.3c.04-.09.09-.18.16-.26l-.21.26c.06-.08.14-.15.22-.21l-.27.2c.07-.05.13-.09.21-.12l-.32.13s.06-.02.1-.04c.33-.11.61-.29.79-.59.17-.27.24-.68.13-.98s-.3-.61-.61-.76-.69-.24-1.02-.13h0Z"/>
  </g>
  <g id="Layer_1-2" data-name="Layer 1">
    <path class="cls-2" d="m6.4,7.52c.36-.18.73-.34,1.1-.5l-.32.13c1.8-.73,3.71-1.15,5.63-1.4l-.35.05c1.31-.17,2.62-.26,3.94-.32s2.73-.11,4.09-.1c.81,0,1.61.05,2.41.15l-.35-.05c.99.13,1.96.35,2.89.73l-.32-.13c.66.27,1.29.61,1.86,1.03l-.27-.2c.43.32.82.69,1.16,1.11l-.21-.26c.39.49.7,1.02.95,1.59l-.13-.3c.67,1.54.96,3.23,1.19,4.87l-.05-.34c.46,3.34.44,6.72.33,10.08-.03.92-.04,1.85-.16,2.76l.05-.34c-.07.52-.2,1.04-.41,1.53l.13-.3c-.17.38-.39.73-.65,1.06l.21-.26c-.32.4-.7.76-1.12,1.07l.27-.2c-.52.38-1.09.69-1.69.94l.32-.13c-.86.34-1.77.55-2.69.67l.35-.05c-1.78.23-3.6.19-5.4.21-1.86.02-3.73.06-5.59.07-1.02,0-2.04-.02-3.05-.15l.35.05c-.88-.12-1.75-.32-2.57-.65l.32.13c-.57-.24-1.12-.53-1.61-.9l.27.2c-.38-.29-.73-.61-1.02-.98l.21.26c-.31-.39-.56-.82-.76-1.28l.13.3c-.61-1.4-.77-2.95-.98-4.44l.05.34c-.39-2.81-.66-5.66-.52-8.5.04-.79.11-1.57.22-2.35l-.05.34c.19-1.33.44-2.7.98-3.95l-.13.3c.22-.49.48-.96.82-1.39l-.21.26c.21-.26.46-.51.73-.71l-.27.2c.21-.16.44-.28.69-.39l-.32.13c.17-.07.34-.12.52-.16.32-.07.63-.32.79-.59s.24-.68.13-.98c-.23-.68-.91-1.05-1.63-.89-1.56.33-2.73,1.56-3.4,2.9-.71,1.44-1.05,3.01-1.27,4.58-.25,1.79-.35,3.58-.29,5.38.05,1.71.22,3.42.45,5.12.12.91.25,1.83.4,2.73.12.74.27,1.49.52,2.2.16.46.35.91.59,1.33s.5.78.81,1.13c.52.61,1.18,1.12,1.88,1.52,1.57.9,3.37,1.25,5.17,1.37.89.06,1.78.05,2.67.05.93-.01,1.87-.02,2.8-.03,1.81-.02,3.61-.02,5.42-.08.98-.03,1.97-.11,2.94-.27.9-.14,1.75-.39,2.58-.73,1.46-.6,2.77-1.6,3.6-2.9.99-1.56,1.01-3.41,1.07-5.18.13-3.47.17-6.96-.31-10.4-.23-1.7-.49-3.45-1.15-5.05-.18-.44-.37-.87-.61-1.28s-.54-.81-.86-1.19c-.52-.61-1.17-1.13-1.86-1.56s-1.47-.77-2.26-1.03c-.87-.29-1.78-.44-2.69-.56-1.75-.22-3.53-.15-5.29-.09-1.65.05-3.3.14-4.94.35-1.73.22-3.45.52-5.1,1.08-.84.28-1.67.62-2.46,1.01-.29.14-.53.47-.61.76-.08.29-.05.71.13.98s.46.51.79.59c.36.08.69.03,1.02-.13h0Z"/>
    <path class="cls-2" d="m15.93,12.54c-.24-.04-.49-.08-.73-.07s-.52.04-.76.09c-.38.08-.76.23-1.09.43-.69.4-1.26.99-1.65,1.67-.35.62-.59,1.31-.74,2-.18.85-.26,1.71-.05,2.57.18.74.59,1.38,1.08,1.96.43.51,1,.94,1.6,1.25.66.35,1.39.59,2.12.72s1.52.22,2.28.16c.43-.04.86-.09,1.26-.25.24-.09.48-.19.69-.33s.44-.31.64-.48c.46-.41.9-.87,1.29-1.34.51-.62.95-1.25,1.2-2.01s.24-1.63.02-2.4c-.23-.79-.66-1.47-1.18-2.11-.4-.49-.88-.89-1.41-1.25s-1.1-.63-1.71-.86-1.24-.34-1.89-.41c-1.28-.14-2.58.12-3.73.67-1.15.54-2.11,1.45-2.8,2.48s-1.09,2.29-1.1,3.53c0,.84.18,1.67.57,2.42.18.35.43.66.69.96.2.22.42.43.66.61.54.42,1.1.79,1.73,1.06.62.27,1.26.5,1.94.62,1.35.25,2.75.23,4.08-.12.66-.18,1.3-.43,1.89-.76.35-.2.68-.43,1-.68.24-.18.46-.39.65-.62.27-.32.51-.63.69-1s.34-.76.47-1.16c.1-.32.2-.64.28-.96.11-.43.18-.88.13-1.32-.03-.26-.07-.51-.15-.76s-.2-.51-.32-.75c-.13-.3-.27-.6-.41-.89-.32-.67-.72-1.28-1.21-1.84-.44-.5-1-.93-1.58-1.28s-1.24-.61-1.91-.77c-.71-.17-1.47-.24-2.2-.18-.75.06-1.49.2-2.18.47-.39.16-.78.32-1.14.53-.33.19-.63.42-.92.65-.22.18-.42.38-.6.6-.24.29-.48.58-.65.92-.33.65-.55,1.37-.47,2.1.02.22.06.45.18.64.15.24.37.42.64.52.23.09.45.12.69.09.3-.04.53-.16.76-.35.34-.28.68-.56,1.04-.83l-.27.2c.67-.49,1.37-.94,2.15-1.26l-.32.13c.51-.21,1.04-.36,1.59-.43l-.35.05c.43-.05.86-.06,1.3-.01l-.35-.05c.42.05.82.17,1.22.33l-.32-.13c.33.13.65.3.96.47s.6.34.88.54l-.27-.2c.13.1.25.2.35.33l-.21-.26c.09.12.17.25.23.39l-.13-.3c.09.21.14.43.17.65l-.05-.34c.05.35.05.7.05,1.06,0,.39,0,.77-.05,1.15l.05-.34c-.04.31-.12.61-.24.9l.13-.3c-.11.26-.26.5-.44.72l.21-.26c-.43.54-.99.96-1.55,1.37-.25.19-.39.62-.39.9,0,.31.14.69.39.9s.59.39.94.37l.35-.05c.23-.06.42-.17.59-.33.45-.34.91-.68,1.29-1.08.53-.56.95-1.2,1.16-1.93.2-.68.22-1.41.21-2.12,0-.28,0-.56-.04-.84-.04-.37-.08-.74-.22-1.09-.17-.44-.39-.83-.75-1.16-.29-.27-.63-.48-.97-.69-.62-.37-1.27-.69-1.96-.92-1.36-.46-2.93-.34-4.26.15-.75.28-1.45.63-2.11,1.06s-1.28.93-1.89,1.44c.76.3,1.51.6,2.27.9-.02-.2-.02-.4.01-.59l-.05.34c.04-.24.11-.47.2-.7l-.13.3c.12-.27.28-.53.47-.76l-.21.26c.25-.31.54-.58.85-.82l-.27.2c.37-.27.79-.49,1.22-.67l-.32.13c.51-.21,1.04-.35,1.59-.42l-.35.05c.52-.06,1.04-.07,1.57,0l-.35-.05c.49.07.96.19,1.42.38l-.32-.13c.44.18.85.41,1.23.69l-.27-.2c.37.27.7.59.98.94l-.21-.26c.57.72.94,1.56,1.3,2.38l-.13-.3c.11.26.21.51.25.79l-.05-.34c.03.19.02.39,0,.58l.05-.34c-.05.36-.16.71-.26,1.06-.1.33-.2.65-.34.97l.13-.3c-.14.31-.31.6-.52.87l.21-.26c-.23.28-.5.53-.8.75l.27-.2c-.42.31-.88.55-1.36.75l.32-.13c-.58.24-1.19.39-1.82.47l.35-.05c-.67.08-1.34.08-2,0l.35.05c-.64-.09-1.26-.25-1.86-.49l.32.13c-.55-.22-1.07-.51-1.54-.86l.27.2c-.33-.25-.63-.52-.88-.83l.21.26c-.18-.23-.33-.47-.45-.74l.13.3c-.13-.3-.21-.6-.25-.92l.05.34c-.06-.44-.06-.88,0-1.31l-.05.34c.07-.47.2-.93.39-1.37l-.13.3c.2-.46.47-.89.78-1.29l-.21.26c.31-.39.67-.73,1.07-1.03l-.27.2c.38-.28.8-.52,1.25-.7l-.32.13c.43-.17.87-.28,1.32-.35l-.35.05c.51-.07,1.03-.06,1.54,0l-.35-.05c.55.07,1.08.21,1.59.42l-.32-.13c.49.2.95.46,1.37.77l-.27-.2c.38.28.72.61,1.02.98l-.21-.26c.26.33.48.68.65,1.05l-.13-.3c.13.29.22.59.27.9l-.05-.34c.04.26.04.51,0,.77l.05-.34c-.04.28-.12.54-.23.8l.13-.3c-.17.39-.41.74-.68,1.07l.21-.26c-.23.29-.49.56-.74.82s-.54.56-.85.79l.27-.2c-.16.12-.33.22-.51.29l.32-.13c-.24.09-.48.15-.74.19l.35-.05c-.57.07-1.15.03-1.71-.04l.35.05c-.59-.08-1.18-.22-1.73-.44l.32.13c-.39-.16-.75-.36-1.09-.61l.27.2c-.29-.22-.55-.46-.77-.74l.21.26c-.2-.25-.36-.52-.49-.8l.13.3c-.12-.27-.2-.54-.24-.83l.05.34c-.05-.36-.03-.72.02-1.08l-.05.34c.09-.61.24-1.22.49-1.79l-.13.3c.14-.32.31-.61.53-.89l-.21.26c.16-.2.34-.38.55-.53l-.27.2c.19-.14.4-.26.63-.35l-.32.13c.19-.07.38-.13.58-.16l-.35.05c.19-.02.38-.03.56,0l-.35-.05s.05,0,.08.01c.18.05.35.06.53.02.18,0,.34-.06.49-.15.28-.16.54-.46.61-.76.08-.33.06-.69-.13-.98-.18-.26-.46-.53-.79-.59h0Z"/>
    <path class="cls-2" d="m23.93,7.34c-.3.12-.5.2-.74.42-.13.12-.26.28-.34.44-.19.36-.25.67-.29,1.08-.05.49.08.99.45,1.35.29.28.7.46,1.11.53.43.07.88.1,1.3-.06.32-.12.5-.22.77-.43.16-.12.29-.29.39-.45.5-.76.3-1.8-.37-2.41-.57-.53-1.32-.69-2.09-.73-.21,0-.43.02-.63.05-.06,0-.11.02-.16.04-.15.05-.32.11-.45.2-.4.25-.67.58-.85,1-.15.35-.21.72-.21,1.1,0,.11,0,.23.01.34.04.42.16.81.48,1.11.23.21.53.4.82.54.4.2.79.32,1.24.35.07,0,.14,0,.2,0,.16-.02.33-.03.49-.07.2-.06.41-.14.58-.25.39-.24.65-.52.92-.87s.47-.75.47-1.2c0-.41-.18-.77-.45-1.07-.1-.11-.23-.2-.36-.28-.26-.16-.46-.16-.76-.2-.31-.04-.73.17-.94.37-.23.22-.4.58-.39.9s.13.67.39.9l.27.2c.21.12.43.17.67.17h.03s-.35-.04-.35-.04h.03s-.32-.12-.32-.12c.02,0,.04.02.05.03l-.27-.2s.04.04.06.06l-.21-.26s.02.03.03.05l-.13-.3s.02.06.03.09l-.05-.34s0,.06,0,.1l.05-.34s-.02.07-.03.11l.13-.3c-.06.14-.16.26-.25.38l.21-.26c-.11.13-.23.26-.37.36l.27-.2c-.08.06-.16.1-.25.14l.32-.13c-.07.03-.14.04-.22.06l.35-.05c-.08,0-.16,0-.24,0l.35.05c-.12-.02-.24-.05-.36-.09l.32.13c-.23-.1-.45-.23-.66-.37l.27.2s-.06-.05-.09-.08l.21.26s-.03-.04-.04-.07l.13.3s-.02-.05-.02-.08l.05.34c-.03-.22-.03-.46,0-.69l-.05.34c.02-.11.04-.21.08-.31l-.13.3c.03-.08.07-.15.13-.22l-.21.26c.05-.06.1-.11.15-.15l-.27.2s.08-.05.12-.07l-.32.13c.07-.03.13-.04.2-.06l-.35.05c.2-.02.4,0,.59.02l-.35-.05c.18.02.35.06.52.13l-.32-.13c.08.04.16.08.24.13l-.27-.2c.07.05.13.11.18.17l-.21-.26c.04.06.08.12.11.18l-.13-.3c.02.05.04.11.05.16l-.05-.34c0,.06,0,.11,0,.17l.05-.34c0,.05-.03.11-.05.16l.13-.3c-.02.05-.05.1-.09.14l.21-.26c-.04.05-.09.1-.15.14l.27-.2c-.06.04-.12.07-.18.1l.32-.13c-.09.04-.18.06-.27.07l.35-.05c-.1,0-.2,0-.3,0l.35.05c-.13-.02-.25-.05-.37-.09l.32.13s-.08-.04-.12-.06l.27.2s-.05-.04-.07-.07l.21.26-.02-.03.13.3s-.02-.07-.03-.11l.05.34c0-.12,0-.24.02-.36l-.05.34c.02-.11.04-.22.09-.33l-.13.3c.02-.05.05-.1.09-.15l-.21.26s.05-.06.08-.08l-.27.2s.06-.04.1-.06l-.32.13h.03c.17-.05.32-.13.45-.24.14-.09.26-.21.34-.36.17-.27.24-.68.13-.98s-.3-.61-.61-.76-.7-.26-1.02-.13h0Z"/>
  </g>
</svg>