<?xml version="1.0" encoding="utf-8"?>
<!-- Generator: Adobe Illustrator 27.1.1, SVG Export Plug-In . SVG Version: 6.00 Build 0)  -->
<svg version="1.1" id="Layer_1" xmlns="http://www.w3.org/2000/svg" xmlns:xlink="http://www.w3.org/1999/xlink" x="0px" y="0px"
	 viewBox="0 0 24 24" style="enable-background:new 0 0 24 24;" xml:space="preserve">
<style type="text/css">
	.st0{fill:none;stroke:#E3CAE2;stroke-width:2;stroke-linecap:round;stroke-linejoin:round;}
</style>
<path class="st0" d="M13.8,11.1h5.5c1.5,0,2.7,1.2,2.7,2.7v5.5c0,1.5-1.2,2.7-2.7,2.7h-5.5c-1.5,0-2.7-1.2-2.7-2.7v-5.5
	C11.1,12.3,12.3,11.1,13.8,11.1z"/>
<path class="st0" d="M18.7,16.2c0.2,1.2-0.6,2.3-1.8,2.5s-2.3-0.6-2.5-1.8s0.6-2.3,1.8-2.5c0.2,0,0.4,0,0.6,0
	C17.8,14.5,18.6,15.2,18.7,16.2z"/>
<line class="st0" x1="19.5" y1="13.5" x2="19.5" y2="13.5"/>
</svg>
