<?xml version="1.0" encoding="UTF-8"?>
<svg id="Layer_2" data-name="Layer 2" xmlns="http://www.w3.org/2000/svg" viewBox="0 0 49.3 54.2">
  <defs>
    <style>
      .cls-1 {
        fill: #e9c2ff;
      }

      .cls-2 {
        fill: none;
        stroke: #d995f5;
        stroke-miterlimit: 10;
      }
    </style>
  </defs>
  <path class="cls-2" d="m25.87,2.66L6.82,13.35l-.28,21.84,18.79,11.16,19.05-10.69.28-21.84L25.87,2.66h0Z"/>
  <g>
    <path class="cls-1" d="m13.66,18.31h1.71v6.41h.06c.36-.51.71-.98,1.04-1.42l4.06-4.99h2.14l-4.82,5.64,5.19,7.65h-2.04l-4.38-6.53-1.27,1.46v5.06h-1.71v-13.3h.01Z"/>
    <path class="cls-1" d="m35.55,25.78c-.1-1.85-.21-4.08-.2-5.74h-.06c-.46,1.55-1.01,3.22-1.68,5.05l-2.35,6.44h-1.3l-2.15-6.33c-.63-1.87-1.17-3.59-1.54-5.16h-.04c-.04,1.65-.14,3.89-.26,5.87l-.36,5.7h-1.64l.93-13.3h2.18l2.27,6.43c.55,1.64,1.01,3.09,1.34,4.48h.06c.34-1.34.81-2.81,1.4-4.48l2.37-6.43h2.18l.83,13.3h-1.68l-.34-5.83h0Z"/>
  </g>
</svg>