<?xml version="1.0" encoding="UTF-8"?>
<svg id="Layer_2" data-name="Layer 2" xmlns="http://www.w3.org/2000/svg" viewBox="0 0 57 24">
  <defs>
    <style>
      .cls-1 {
        fill: #d995f5;
      }

      .cls-2 {
        fill: #7940a6;
      }
    </style>
  </defs>
  <g>
    <path class="cls-2" d="m39.51,20.74c5.23-2.2,10.47-4.37,15.62-6.74.44-.2.06-.85-.38-.65-5.09,2.35-10.27,4.5-15.45,6.67-.44.18-.25.91.2.72h0Z"/>
    <path class="cls-2" d="m55.16,13.1c-2.31-1.19-4.82-2.05-7.23-3.02-2.57-1.04-5.15-2.07-7.72-3.11-.45-.18-.64.55-.2.72,2.48,1,4.97,2,7.45,3s4.98,1.85,7.32,3.06c.43.22.81-.43.38-.65h0Z"/>
  </g>
  <g>
    <path class="cls-2" d="m19.46,6.64c-5.27,2.11-10.54,4.19-15.73,6.49-.44.19-.06.84.38.65,5.13-2.27,10.35-4.33,15.55-6.41.44-.18.25-.9-.2-.72h0Z"/>
    <path class="cls-2" d="m3.69,14.01c2.35,1.26,4.9,2.18,7.36,3.22s4.99,2.11,7.49,3.16c.44.19.64-.54.2-.72-2.53-1.06-5.05-2.13-7.58-3.2-2.36-1-4.82-1.89-7.09-3.1-.43-.23-.8.42-.38.65h0Z"/>
  </g>
  <g>
    <path class="cls-1" d="m21.2,11.19l-.6.59v1.53h-.36v-4.27h.36v2.3l2.19-2.3h.45l-1.79,1.9,1.92,2.37h-.44l-1.74-2.12Z"/>
    <path class="cls-1" d="m24.5,9.04l1.57,3.76,1.58-3.76h.48v4.27h-.36v-1.86l.03-1.9-1.59,3.76h-.28l-1.58-3.75.03,1.88v1.87h-.36v-4.27h.48Z"/>
  </g>
  <g>
    <path class="cls-1" d="m26.16,17.84v-2.84h.79c.23,0,.44.05.63.16s.33.26.43.46.16.42.16.68v.26c0,.25-.05.48-.15.68s-.25.35-.43.46-.4.16-.64.16h-.78Zm.24-2.64v2.44h.54c.3,0,.54-.1.72-.3.18-.2.27-.47.27-.81v-.25c0-.33-.09-.59-.27-.79-.18-.2-.41-.3-.71-.3h-.56Z"/>
    <path class="cls-1" d="m29.54,17.88c-.18,0-.34-.04-.49-.13s-.26-.21-.34-.37-.12-.34-.12-.53v-.08c0-.2.04-.39.12-.55s.19-.29.33-.38.29-.14.46-.14c.26,0,.46.09.61.26s.23.41.23.72v.13h-1.51v.04c0,.24.07.44.21.6s.31.24.52.24c.12,0,.24-.02.33-.07s.18-.12.26-.22l.15.11c-.17.25-.42.37-.75.37Zm-.04-1.99c-.18,0-.32.06-.44.19s-.19.3-.22.52h1.27v-.03c0-.2-.06-.37-.17-.5s-.25-.19-.43-.19Z"/>
    <path class="cls-1" d="m32.06,17.31c0-.12-.05-.21-.14-.28s-.23-.13-.42-.17-.33-.09-.44-.14-.18-.11-.23-.19-.08-.16-.08-.27c0-.17.07-.3.21-.41s.32-.16.54-.16c.24,0,.42.06.57.17s.21.27.21.46h-.23c0-.12-.05-.23-.16-.31s-.23-.12-.39-.12-.28.03-.37.1-.14.16-.14.27.04.19.12.25.22.11.42.16.36.1.46.15.18.12.23.2.07.17.07.28c0,.18-.07.32-.22.43s-.33.16-.56.16c-.25,0-.45-.06-.6-.18s-.23-.27-.23-.45h.23c0,.14.07.24.17.32s.25.11.42.11c.16,0,.29-.04.39-.11s.15-.16.15-.27Z"/>
    <path class="cls-1" d="m32.8,15.12s.01-.08.04-.11c.03-.03.07-.05.12-.05s.09.02.12.05c.03.03.04.07.04.11s-.01.08-.04.11-.07.04-.12.04-.09-.01-.12-.04-.04-.07-.04-.11Zm.28,2.72h-.23v-2.11h.23v2.11Z"/>
    <path class="cls-1" d="m33.62,16.77c0-.33.07-.59.22-.79s.35-.29.6-.29c.29,0,.51.11.66.34v-.3h.23v2.07c0,.27-.08.49-.23.65s-.36.24-.62.24c-.15,0-.29-.03-.42-.1s-.24-.15-.32-.26l.13-.14c.17.2.36.3.59.3.2,0,.35-.06.46-.17s.17-.27.17-.48v-.27c-.15.21-.37.31-.65.31-.25,0-.44-.1-.59-.29s-.22-.46-.22-.79v-.03Zm.24.04c0,.27.05.48.16.64s.26.23.46.23c.29,0,.49-.13.61-.39v-.98c-.05-.14-.13-.24-.24-.31s-.23-.11-.37-.11c-.2,0-.35.08-.46.23s-.16.38-.16.68Z"/>
    <path class="cls-1" d="m36.15,15.73v.36c.09-.13.19-.23.3-.3s.25-.1.39-.1c.23,0,.4.06.51.19s.17.32.17.57v1.39h-.23v-1.39c0-.19-.04-.33-.12-.42s-.21-.14-.38-.14c-.14,0-.27.05-.38.14s-.19.21-.25.37v1.45h-.23v-2.11h.22Z"/>
    <path class="cls-1" d="m39.39,17.31c0-.12-.05-.21-.14-.28s-.23-.13-.42-.17-.33-.09-.44-.14-.18-.11-.23-.19-.08-.16-.08-.27c0-.17.07-.3.21-.41s.32-.16.54-.16c.24,0,.42.06.57.17s.21.27.21.46h-.23c0-.12-.05-.23-.16-.31s-.23-.12-.39-.12-.28.03-.37.1-.14.16-.14.27.04.19.12.25.22.11.42.16.36.1.46.15.18.12.23.2.07.17.07.28c0,.18-.07.32-.22.43s-.33.16-.56.16c-.25,0-.45-.06-.6-.18s-.23-.27-.23-.45h.23c0,.14.07.24.17.32s.25.11.42.11c.16,0,.29-.04.39-.11s.15-.16.15-.27Z"/>
  </g>
</svg>