<?xml version="1.0" encoding="utf-8"?>
<!-- Generator: Adobe Illustrator 27.1.1, SVG Export Plug-In . SVG Version: 6.00 Build 0)  -->
<svg version="1.1" id="Layer_1" xmlns="http://www.w3.org/2000/svg" xmlns:xlink="http://www.w3.org/1999/xlink" x="0px" y="0px"
	 viewBox="0 0 55 57.5" style="enable-background:new 0 0 55 57.5;" xml:space="preserve">
<style type="text/css">
	.st0{fill:#B786BC;}
</style>
<g>
	<path class="st0" d="M44.6,26.5c0-2.3-0.8-4.5-2.2-6.2c0.5-2,0.3-4.1-0.4-6.1c-0.2-0.4-0.5-0.7-0.8-0.8c-0.5-0.2-2.6-0.5-6.8,2.2v0
		c-1.8-0.5-3.7-0.7-5.5-0.7c-1.9,0-3.7,0.2-5.5,0.7c-4.3-2.8-6.5-2.3-7-2.2c-0.4,0.1-0.7,0.4-0.8,0.8c-0.8,1.9-0.9,4-0.4,6.1
		c-1.5,1.8-2.3,4-2.2,6.3c0,8.6,4.9,11.1,9.4,12.1c-0.2,0.6-0.4,1.2-0.5,1.8c0,0.1,0,0.1,0,0.2v2.4c-4.1,0.3-5-2.1-5-2.3v0
		c0-0.1,0-0.1-0.1-0.2c-0.8-1.6-2.2-2.8-3.9-3.4c-0.7-0.2-1.5,0.1-1.7,0.9c-0.2,0.7,0.1,1.5,0.9,1.7c0.9,0.3,1.7,1,2.2,1.9
		c0.5,1.8,2.8,4.5,7.6,4.2v2.2c0,0.7,0.6,1.4,1.4,1.4c0.7,0,1.4-0.6,1.4-1.4v-7.2c0.1-0.8,0.4-1.5,1-2.1c0.4-0.4,0.5-0.9,0.4-1.4
		c-0.2-0.5-0.6-0.9-1.1-0.9c-4.7-0.5-9.1-2.1-9.1-9.7h0c-0.1-1.9,0.7-3.7,2-5c0.4-0.4,0.5-0.9,0.3-1.4c-0.5-1.3-0.5-2.8-0.1-4.1
		c1.7,0.4,3.2,1.1,4.6,2.1c0.4,0.2,0.8,0.3,1.2,0.2c1.7-0.5,3.5-0.8,5.3-0.7c1.8,0,3.6,0.2,5.3,0.7c0.4,0.1,0.8,0.1,1.2-0.2
		c1.3-1,2.8-1.7,4.4-2.1c0.4,1.4,0.4,2.8-0.1,4.1c-0.2,0.5-0.1,1,0.3,1.3c1.3,1.4,2,3.2,2,5c0,7.6-4.6,9.2-9.1,9.7
		c-0.6,0.1-1,0.5-1.2,1c-0.1,0.5,0.1,1.1,0.5,1.4c0.5,0.4,1,1.4,1,3.1v6.1c0,0.7,0.6,1.4,1.4,1.4c0.7,0,1.4-0.6,1.4-1.4v-6.1
		c0-1.1-0.2-2.1-0.6-3.2C39,37.8,44.6,35.4,44.6,26.5L44.6,26.5z"/>
</g>
</svg>
